<?xml version="1.0" encoding="UTF-8" standalone="no"?>
<!-- Generator: Adobe Illustrator 22.0.0, SVG Export Plug-In . SVG Version: 6.00 Build 0)  -->

<svg
   xmlns:dc="http://purl.org/dc/elements/1.1/"
   xmlns:cc="http://creativecommons.org/ns#"
   xmlns:rdf="http://www.w3.org/1999/02/22-rdf-syntax-ns#"
   xmlns:svg="http://www.w3.org/2000/svg"
   xmlns="http://www.w3.org/2000/svg"
   xmlns:sodipodi="http://sodipodi.sourceforge.net/DTD/sodipodi-0.dtd"
   xmlns:inkscape="http://www.inkscape.org/namespaces/inkscape"
   version="1.1"
   id="Layer_1"
   x="0px"
   y="0px"
   viewBox="0 0 613.34135 116.5455"
   xml:space="preserve"
   sodipodi:docname="humanosofia.svg"
   width="613.34137"
   height="116.5455"
   inkscape:version="0.92.4 5da689c313, 2019-01-14"><metadata
   id="metadata813"><rdf:RDF><cc:Work
       rdf:about=""><dc:format>image/svg+xml</dc:format><dc:type
         rdf:resource="http://purl.org/dc/dcmitype/StillImage" /></cc:Work></rdf:RDF></metadata><defs
   id="defs811" /><sodipodi:namedview
   pagecolor="#ffffff"
   bordercolor="#666666"
   borderopacity="1"
   objecttolerance="10"
   gridtolerance="10"
   guidetolerance="10"
   inkscape:pageopacity="0"
   inkscape:pageshadow="2"
   inkscape:window-width="1920"
   inkscape:window-height="1032"
   id="namedview809"
   showgrid="false"
   inkscape:zoom="1.1120197"
   inkscape:cx="253.9088"
   inkscape:cy="-73.836641"
   inkscape:window-x="1920"
   inkscape:window-y="0"
   inkscape:window-maximized="1"
   inkscape:current-layer="Layer_1" />
<style
   type="text/css"
   id="style2">
	.st0{opacity:0.75;}
	.st1{fill:#7F3F98;}
	.st2{fill:#2E3192;}
	.st3{fill:#ED1C24;}
	.st4{fill:#28B0E5;}
	.st5{fill:#39B54A;}
	.st6{fill:#F15A29;}
	.st7{fill:#58595B;}
	.st8{fill:#C49A6C;}
	.st9{fill:#FFF200;}
	.st10{fill:#3C2415;}
	.st11{fill:#00753C;}
	.st12{fill:#006838;}
	.st13{fill:#009444;}
	.st14{fill:#F0525F;}
</style>
<g
   id="g574"
   transform="translate(-103.64822,-291.9545)">
	<g
   class="st0"
   id="g8"
   style="opacity:0.75">
		<g
   id="g6">
			<path
   class="st1"
   d="m 646.3,405.7 c 3.9,0.2 7.8,0.5 11.8,0.7 1.9,0.1 3.9,-1.5 4.3,-3.3 1.1,-5.3 2.3,-11.8 8,-14 4,-1.6 13.7,-1.8 17.4,0.8 2.1,1.5 2.1,5.5 3.4,7.9 1.1,2.1 2.6,3.8 4.5,5.2 4.4,3.2 10,3.8 15.1,1.8 2.3,-0.9 3.8,-2.9 3.1,-5.5 -3.5,-14.9 -7,-29.9 -10.5,-44.8 -2.3,-10 -4.1,-27 -17.1,-28.4 -13.5,-1.4 -17.5,15.3 -21.8,24.8 -6.5,14.3 -12.8,28.7 -19.1,43.1 -1.1,2.4 -0.5,4.6 1.6,6.2 6.7,5 12.9,-1.8 14.9,-7.9 2.9,-8.9 5.7,-17.7 9.3,-26.3 1.7,-4.1 3.5,-8.1 5.4,-12.1 1.9,-3.9 3.6,-8.9 6.4,-12.1 4.7,-5.4 6.5,4.1 7.2,7.5 0.9,4.8 1.9,9.6 2.8,14.3 0.9,4.8 1.9,9.6 2.8,14.3 0.4,2.2 0.9,4.5 1.3,6.7 0.5,2.4 0.5,6.5 1.7,8.6 0.1,0.3 0.1,0.6 0.2,1 0.1,2.2 1.7,2.2 4.7,-0.2 0.1,-0.3 -0.3,-1 -0.3,-1.3 -0.2,-1.7 -1.6,-3.9 -2.2,-5.5 -1.6,-4.4 -1.5,-9.5 -2.2,-14.1 -1.4,-9 -1.7,-19.2 -4.8,-27.8 -1.9,-5.2 -6.2,-10.5 -12.3,-8 -7.7,3.2 -9.5,12.5 -12,19.5 -1.8,5.3 -3.8,10.5 -6.1,15.6 -1.6,3.6 -4.6,6.7 -4.5,10.8 0.1,4.7 5.9,5.8 8.4,2.3 -1.4,2 0.2,0.3 1.5,-0.4 1.2,-0.6 2.4,-1.4 3.7,-1.6 2.2,-0.4 4.9,0.3 7.2,0.4 1.8,0.1 6.7,-0.4 8.1,0.9 3.5,3.2 8.2,-0.1 7.5,-4.4 -1,-5.7 -0.8,-12.8 -8,-13.5 -4.4,-0.5 -10.4,-0.8 -14.8,0.3 -4,0.9 -6.7,5 -4.2,8.8 1.2,1.9 3.2,2.6 5.3,2.7 4.1,0.1 7.4,-0.3 11.4,0.8 5.6,1.5 8,-7.2 2.4,-8.7 -2.4,-0.6 -4.7,-1.1 -7.2,-1.3 -1.2,-0.1 -2.3,-0.1 -3.5,-0.1 -0.6,0 -1.2,0 -1.7,0.1 -1.9,-0.1 -1.5,0.9 1.4,2.8 -0.4,1.1 -0.9,2.1 -1.3,3.2 -0.8,0.8 0.1,0.2 1.1,0.3 0.6,0.1 1.3,0 1.9,0 2,0 7.2,-1 8.8,0.3 -0.7,-0.9 -1.4,-1.8 -2.1,-2.7 1,3 1.3,6.3 1.8,9.4 2.5,-1.5 5,-2.9 7.5,-4.4 -2.9,-2.7 -6,-3 -9.8,-3.2 -4.1,-0.3 -8.4,-1 -12.5,-0.7 -3.9,0.3 -10,3.3 -12.3,6.5 2.8,0.8 5.6,1.5 8.4,2.3 0,-1.3 1.9,-3.5 2.5,-4.6 1,-2 1.8,-4 2.7,-6.1 1.8,-4.4 3.5,-8.8 5.1,-13.3 1.3,-3.8 2,-8.4 4.6,-11.6 0.4,-0.5 1,-1.1 1.5,-1.5 1.2,-0.9 -0.3,-0.6 0.1,0.4 0.9,2.1 1.5,3.9 1.9,6.2 1.8,9.8 3.4,19.8 4.4,29.7 0.4,4.2 1.6,7.4 3.1,11.3 1,2.7 1.4,6 4,7.7 6.4,4.2 10.5,-3.3 9.6,-8.7 -1.7,-10.2 -4,-20.4 -6,-30.6 -0.9,-4.5 -1.8,-9 -2.6,-13.5 -0.9,-4.5 -1.6,-9.1 -4.4,-12.8 -4.7,-6.2 -12.9,-6.6 -18.1,-0.7 -3.1,3.6 -5,8.4 -7.1,12.6 -2.2,4.5 -4.3,9.1 -6.2,13.7 -2.1,4.9 -4,9.8 -5.8,14.9 -0.9,2.6 -1.8,5.1 -2.6,7.7 -0.2,0.7 -2.7,9.1 -3.5,8.5 0.5,2.1 1.1,4.1 1.6,6.2 4.9,-11.4 10,-22.8 15.1,-34.2 2.5,-5.7 5.1,-11.3 7.7,-17 1.6,-3.6 4,-12.7 9.1,-12.4 5,0.3 6.4,8 7.3,11.7 1.5,5.9 2.8,11.9 4.2,17.8 2.9,12.4 5.8,24.8 8.7,37.2 1,-1.8 2.1,-3.7 3.1,-5.5 -3.7,1.5 -7.5,1 -9.4,-2.8 -1.3,-2.8 -1.3,-5.7 -3.3,-8.3 -3.9,-4.9 -10.8,-5.3 -16.6,-5.6 -6.2,-0.4 -12.7,0.5 -17.5,4.8 -4.8,4.3 -6.5,10.6 -7.8,16.6 1.4,-1.1 2.9,-2.2 4.3,-3.3 -3.9,-0.2 -7.8,-0.5 -11.8,-0.7 -5.6,-0.7 -5.6,8.3 0.1,8.6 z"
   id="path4"
   inkscape:connector-curvature="0"
   style="fill:#7f3f98" />
		</g>
	</g>
	<g
   class="st0"
   id="g14"
   style="opacity:0.75">
		<g
   id="g12">
			<path
   class="st2"
   d="m 599.1,400.3 c 0,0.7 -0.1,1.4 -0.1,2.1 3,0 6,0 9,0 0,-0.2 0,-0.3 -0.1,-0.5 -0.4,1.1 -0.9,2.1 -1.3,3.2 0.1,-0.1 0.2,-0.2 0.4,-0.3 -1.8,0.2 -3.6,0.5 -5.5,0.7 0.1,0.1 0.3,0.2 0.4,0.3 -0.7,-1.3 -1.5,-2.6 -2.2,-3.9 0,0.2 0,0.3 0,0.5 3,0 6,0 9,0 -0.2,-2.7 -0.5,-5.3 -0.7,-8 -2.8,0.8 -5.6,1.5 -8.4,2.3 0.4,0.9 0.8,1.9 1.3,2.8 1.8,3.9 8.9,2.1 8.4,-2.3 -0.3,-2.8 -0.7,-5.7 -1,-8.5 -0.5,-4.1 -6,-6.6 -8.4,-2.3 -0.4,0.7 -0.8,1.4 -1.1,2.1 2.7,1.2 5.5,2.3 8.2,3.5 0.5,-1.3 0.9,-2.5 1.4,-3.8 -2.9,-0.4 -5.9,-0.8 -8.8,-1.2 0,0.4 0.1,0.7 0.1,1.1 0.5,5.7 9,5.9 9,0 0,-1.2 0,-2.4 0,-3.6 0,-4.9 -7.8,-6.3 -8.8,-1.2 -0.1,0.5 -0.2,1 -0.3,1.5 2.9,0.8 5.8,1.6 8.7,2.4 0.6,-3.1 0.1,-5.8 -2.4,-8 0.4,1.1 0.9,2.1 1.3,3.2 0.2,-2.1 0.4,-4.1 0.6,-6.2 -2.9,0.4 -5.9,0.8 -8.8,1.2 0.1,0.5 0.2,1 0.3,1.5 1.1,5 8.8,3.8 8.8,-1.2 0,-1.6 0,-3.3 0.1,-4.9 0,-4.3 -4.8,-5.4 -7.7,-3.2 -0.3,0.3 -0.7,0.5 -1,0.8 2.6,1.1 5.1,2.1 7.7,3.2 0,-0.6 0.1,-1.2 0.1,-1.8 0.2,-4.3 -6.4,-6.3 -8.4,-2.3 -0.3,0.7 -0.6,1.3 -1,2 -2.1,4.4 3.4,9.4 7.1,5.5 0.3,-0.3 0.6,-0.7 0.9,-1 -2.6,-1.1 -5.1,-2.1 -7.7,-3.2 0.1,0.7 0.2,1.4 0.3,2.1 0.6,4.5 8,6.7 8.8,1.2 0.4,-2.6 0.8,-5.2 1.2,-7.7 0.6,-3.9 -4.3,-8.2 -7.5,-4.4 -0.8,1 -1.6,1.9 -2.4,2.9 2.6,1.1 5.1,2.1 7.7,3.2 -0.3,-3 -2.2,-5.7 -5.5,-5.5 1.4,1.1 2.9,2.2 4.3,3.3 0,-0.2 0,-0.3 -0.1,-0.5 -0.4,1.5 -0.8,2.9 -1.2,4.4 0.1,-0.1 0.2,-0.2 0.3,-0.3 -1.8,0.2 -3.6,0.5 -5.5,0.7 0.1,0.1 0.3,0.1 0.4,0.2 -0.7,-0.9 -1.4,-1.8 -2.1,-2.7 0,0.2 0,0.3 0.1,0.5 0.7,4.4 7.8,4.1 8.7,0 0.5,-2.3 1,-4.6 1.5,-6.9 1.1,-4.8 -5.7,-8.1 -8.2,-3.5 -0.6,1.1 -1.2,2.2 -1.8,3.2 2.6,0 5.2,0 7.8,0 0.4,0.7 3,-4.8 3.1,-5.3 1,-4.1 -4.4,-8 -7.5,-4.4 -0.7,0.9 -1.5,1.7 -2.2,2.6 2.5,0.7 5,1.3 7.5,2 -0.2,-0.6 -0.3,-1.2 -0.5,-1.7 -1.1,-3.9 -6.1,-4.2 -8.2,-1.1 -0.3,0.4 -0.5,0.8 -0.8,1.1 2.8,0.8 5.6,1.5 8.4,2.3 0.2,-4.7 -1.9,-8.7 -5.9,-11.2 0.5,2.1 1.1,4.1 1.6,6.2 -0.3,0.3 -0.6,0.5 -0.9,0.8 -1.1,-0.4 -2.1,-0.9 -3.2,-1.3 0,-0.3 0,-0.6 0,-1 -0.8,3.9 3,6.9 6.6,5.1 2.3,-1.2 4.6,-2.3 6.9,-3.5 -1.5,-2.6 -3,-5.2 -4.5,-7.8 -1.4,0.2 -2.1,-0.4 -2,-1.7 -2.7,1.2 -5.5,2.3 -8.2,3.5 0.7,1.1 1.3,2.1 2,3.2 2.2,3.5 8.8,2.4 8.4,-2.3 -0.6,-6.6 -1.2,-13.1 -1.7,-19.7 -0.4,-5.5 -0.4,-13.6 7.1,-13.5 5.8,0.1 5.8,-8.9 0,-9 -22,-0.5 -15.5,28.9 -14.4,42.2 2.8,-0.8 5.6,-1.5 8.4,-2.3 -0.7,-1.1 -1.3,-2.1 -2,-3.2 -2.7,-4.4 -9.3,-1.5 -8.2,3.5 1.5,7.3 8.7,10.6 15.2,7 5.1,-2.8 0.6,-10.4 -4.5,-7.8 -2.3,1.2 -4.6,2.3 -6.9,3.5 2.2,1.7 4.4,3.4 6.6,5.1 1.7,-8.1 -7.6,-12.5 -12.4,-5.4 -1.4,2.1 -0.4,4.9 1.6,6.2 1.4,0.8 1.5,1.9 1.4,3.4 -0.2,4.7 6,5.7 8.4,2.3 0.3,-0.4 0.5,-0.8 0.8,-1.1 -2.7,-0.4 -5.5,-0.7 -8.2,-1.1 0.2,0.6 0.3,1.2 0.5,1.7 0.9,3.1 5.2,4.6 7.5,2 0.7,-0.9 1.5,-1.7 2.2,-2.6 -2.5,-1.5 -5,-2.9 -7.5,-4.4 -0.5,2.2 -2.4,3.7 -3,5.9 -0.6,2.3 -0.2,4.2 0.8,6.3 1.5,3 6.2,2.8 7.8,0 0.6,-1.1 1.2,-2.2 1.8,-3.2 -2.7,-1.2 -5.5,-2.3 -8.2,-3.5 -0.5,2.3 -1,4.6 -1.5,6.9 2.9,0 5.8,0 8.7,0 -0.2,-1.5 -1.2,-2.7 -2.6,-3.4 -1.8,-0.9 -4,-0.8 -5.5,0.7 -1.5,1.6 -1.7,3.1 -1.4,5.2 0.3,1.8 2.6,3.4 4.3,3.3 0.2,0 0.4,0 0.5,0 -1.1,-0.4 -2.1,-0.9 -3.2,-1.3 0.1,0.1 0.3,0.3 0.4,0.4 -0.4,-1.1 -0.9,-2.1 -1.3,-3.2 0,0.2 0,0.4 0.1,0.6 0.3,3.5 4.9,6.5 7.7,3.2 0.8,-1 1.6,-1.9 2.4,-2.9 -2.5,-1.5 -5,-2.9 -7.5,-4.4 -0.4,2.6 -0.8,5.2 -1.2,7.7 2.9,0.4 5.9,0.8 8.8,1.2 -0.1,-0.7 -0.2,-1.4 -0.3,-2.1 -0.5,-3.6 -4.7,-6.3 -7.7,-3.2 -0.3,0.3 -0.6,0.7 -0.9,1 2.4,1.8 4.7,3.6 7.1,5.5 0.3,-0.7 0.6,-1.3 1,-2 -2.8,-0.8 -5.6,-1.5 -8.4,-2.3 0,0.6 -0.1,1.2 -0.1,1.8 -0.2,4.3 4.9,5.4 7.7,3.2 0.3,-0.3 0.7,-0.5 1,-0.8 -2.6,-1.1 -5.1,-2.1 -7.7,-3.2 0,1.6 0,3.3 -0.1,4.9 2.9,-0.4 5.9,-0.8 8.8,-1.2 -0.1,-0.5 -0.2,-1 -0.3,-1.5 -1.2,-5.3 -8.4,-3.5 -8.8,1.2 -0.2,1.9 -0.8,4.3 -0.6,6.2 0.1,0.6 1,4.5 1.4,2.4 -1,5.6 7.5,8.1 8.7,2.4 0.1,-0.5 0.2,-1 0.3,-1.5 -2.9,-0.4 -5.9,-0.8 -8.8,-1.2 0,1.2 0,2.4 0,3.6 3,0 6,0 9,0 0,-0.4 -0.1,-0.7 -0.1,-1.1 -0.5,-5.1 -7.1,-6.1 -8.8,-1.2 -0.5,1.3 -0.9,2.5 -1.4,3.8 -1.8,4.8 5.8,7.9 8.2,3.5 0.4,-0.7 0.8,-1.4 1.1,-2.1 -2.8,-0.8 -5.6,-1.5 -8.4,-2.3 0.3,2.8 0.7,5.7 1,8.5 2.8,-0.8 5.6,-1.5 8.4,-2.3 -0.4,-0.9 -0.8,-1.9 -1.3,-2.8 -1.8,-4 -8.8,-2.1 -8.4,2.3 0.2,2.7 0.5,5.3 0.7,8 0.5,5.7 9.3,5.9 9,0 -0.1,-2.1 -0.8,-3.5 -2.7,-4.7 -1.7,-1.1 -4,-0.6 -5.5,0.7 -1.2,1.1 -1.8,2.5 -1.6,4 0.7,5.6 8.7,5.9 9,0 0,-0.7 0.1,-1.4 0.1,-2.1 0.4,-5.6 -8.6,-5.6 -8.9,0.1 z"
   id="path10"
   inkscape:connector-curvature="0"
   style="fill:#2e3192" />
		</g>
	</g>
	<g
   id="g20">
		<g
   id="g18">
			<path
   d="m 600.4,408.5 c 1.9,0 3.8,0 5.6,0 3.2,0 3.2,-5 0,-5 -1.9,0 -3.8,0 -5.6,0 -3.2,0 -3.2,5 0,5 z"
   id="path16"
   inkscape:connector-curvature="0" />
		</g>
	</g>
	<g
   id="g26">
		<g
   id="g24">
			<path
   d="m 603.3,403.8 c -1.1,-16.2 -2.3,-32.4 -3.4,-48.6 -0.2,-3.2 -5.2,-3.2 -5,0 1.1,16.2 2.3,32.4 3.4,48.6 0.2,3.2 5.2,3.2 5,0 z"
   id="path22"
   inkscape:connector-curvature="0" />
		</g>
	</g>
	<g
   id="g32">
		<g
   id="g30">
			<path
   d="m 596.3,352 c -0.2,0.1 -0.5,0.1 -0.7,0.2 0.5,-0.1 -0.3,0 -0.4,0 -0.1,0 -0.2,0 -0.4,0 0.2,0 0.2,0 0.1,0 -0.3,-0.1 -0.5,-0.1 -0.8,-0.2 -1.2,-0.5 -2.8,0.5 -3.1,1.7 -0.3,1.4 0.4,2.6 1.7,3.1 1.5,0.6 3.3,0.6 4.9,0.1 1.2,-0.4 2.2,-1.8 1.7,-3.1 -0.3,-1.4 -1.6,-2.3 -3,-1.8 z"
   id="path28"
   inkscape:connector-curvature="0" />
		</g>
	</g>
	<g
   id="g38">
		<g
   id="g36">
			<path
   d="m 595.3,353.2 c 0,-1.3 0,-2.6 0,-3.9 0,-1.3 -1.1,-2.6 -2.5,-2.5 -1.4,0.1 -2.5,1.1 -2.5,2.5 0,1.3 0,2.6 0,3.9 0,1.3 1.1,2.6 2.5,2.5 1.3,0 2.5,-1.1 2.5,-2.5 z"
   id="path34"
   inkscape:connector-curvature="0" />
		</g>
	</g>
	<g
   id="g44">
		<g
   id="g42">
			<path
   d="m 593.3,350 c 1.3,-0.2 2.7,-0.3 4,-0.5 1.3,-0.2 2.6,-1 2.5,-2.5 -0.1,-1.2 -1.1,-2.7 -2.5,-2.5 -1.3,0.2 -2.7,0.3 -4,0.5 -1.3,0.2 -2.6,1 -2.5,2.5 0,1.3 1.1,2.7 2.5,2.5 z"
   id="path40"
   inkscape:connector-curvature="0" />
		</g>
	</g>
	<g
   id="g50">
		<g
   id="g48">
			<path
   d="m 604.4,348.8 c 1.9,-0.4 3.8,-0.9 5.6,-1.3 3.1,-0.7 1.8,-5.6 -1.3,-4.8 -1.9,0.4 -3.8,0.9 -5.6,1.3 -3.1,0.7 -1.8,5.5 1.3,4.8 z"
   id="path46"
   inkscape:connector-curvature="0" />
		</g>
	</g>
	<g
   id="g56">
		<g
   id="g54">
			<path
   d="m 607.3,346.4 c 0.3,1.5 0.6,3 0.8,4.4 0.3,1.3 1.9,2.1 3.1,1.7 1.4,-0.4 2,-1.7 1.7,-3.1 -0.3,-1.5 -0.6,-3 -0.8,-4.4 -0.3,-1.3 -1.9,-2.1 -3.1,-1.7 -1.4,0.4 -2,1.8 -1.7,3.1 z"
   id="path52"
   inkscape:connector-curvature="0" />
		</g>
	</g>
	<g
   id="g62">
		<g
   id="g60">
			<path
   d="m 609.8,349.3 c -1.6,0.4 -3.1,0.8 -4.7,1.2 -1.3,0.3 -2.1,1.8 -1.7,3.1 0.4,1.3 1.8,2.1 3.1,1.7 1.6,-0.4 3.1,-0.8 4.7,-1.2 1.3,-0.3 2.1,-1.8 1.7,-3.1 -0.4,-1.2 -1.8,-2 -3.1,-1.7 z"
   id="path58"
   inkscape:connector-curvature="0" />
		</g>
	</g>
	<g
   id="g68">
		<g
   id="g66">
			<path
   d="m 603.3,354.3 c 0.5,17.3 0.9,34.5 1.4,51.8 0.1,3.2 5.1,3.2 5,0 -0.5,-17.3 -0.9,-34.5 -1.4,-51.8 -0.1,-3.2 -5.1,-3.2 -5,0 z"
   id="path64"
   inkscape:connector-curvature="0" />
		</g>
	</g>
	<g
   id="g74">
		<g
   id="g72">
			<path
   d="m 605.8,344.2 c -0.4,-4.6 -5.4,-29.6 3.8,-28.3 3.1,0.4 4.5,-4.4 1.3,-4.8 -16.8,-2.4 -11,24.3 -10.2,33.2 0.4,3.1 5.4,3.1 5.1,-0.1 z"
   id="path70"
   inkscape:connector-curvature="0" />
		</g>
	</g>
	<g
   id="g80">
		<g
   id="g78">
			<path
   d="m 600.1,344.7 c -0.8,-9.5 -7,-39.8 11.9,-34 3.1,0.9 4.4,-3.9 1.3,-4.8 -7.5,-2.3 -15.3,1.1 -18.5,8.4 -1.8,4.1 -1.5,8.6 -1.2,13 0.4,5.8 1,11.6 1.4,17.4 0.4,3.2 5.4,3.2 5.1,0 z"
   id="path76"
   inkscape:connector-curvature="0" />
		</g>
	</g>
	<g
   id="g86">
		<g
   id="g84">
			<path
   d="m 610.6,308.6 c -0.1,1.8 -0.2,3.7 -0.3,5.5 -0.1,1.3 1.2,2.5 2.5,2.5 1.4,0 2.4,-1.1 2.5,-2.5 0.1,-1.8 0.2,-3.7 0.3,-5.5 0.1,-1.3 -1.2,-2.5 -2.5,-2.5 -1.4,0 -2.4,1.1 -2.5,2.5 z"
   id="path82"
   inkscape:connector-curvature="0" />
		</g>
	</g>
	<g
   id="g154">
		<g
   class="st0"
   id="g92"
   style="opacity:0.75">
			<g
   id="g90">
				<path
   class="st3"
   d="m 132.2,314.8 c 2.6,24.7 5.2,49.5 7.8,74.2 4.9,-0.7 9.8,-1.3 14.7,-2 -2.5,-9.8 -3.3,-19.3 -3.5,-29.3 -0.1,-4 -0.8,-8.1 -3.9,-10.9 -4,-3.6 -9,-2.7 -13.9,-2.1 -8.4,1.1 -21.1,0.2 -23,10.8 -0.9,4.9 0,10.4 0.1,15.3 0.1,5.6 0.3,11.1 0.4,16.7 0.2,9.6 15.2,9.7 15,0 -0.4,-24.1 -1.1,-48.3 -7.3,-71.7 -2.5,-9.3 -17,-5.4 -14.5,4 5.9,22.1 6.4,45 6.8,67.7 5,0 10,0 15,0 -0.2,-7.5 -0.3,-15 -0.5,-22.6 0,-1.6 0.5,-4.4 -0.1,-5.9 0.2,-2.3 -0.8,-1.6 -2.8,2 0.4,-0.1 0.7,-0.1 1.1,-0.2 3.2,0.4 7.5,-0.9 10.7,-1.4 0.7,-0.1 5,-0.6 5,-0.6 -1,-0.9 -2.1,-1.7 -3.1,-2.6 0,0.7 0,1.5 0,2.2 0,3.4 0.1,6.8 0.4,10.2 0.6,7.5 1.8,14.9 3.7,22.1 2,8 15.6,6.6 14.7,-2 -2.6,-24.7 -5.2,-49.5 -7.8,-74.2 -0.4,-4 -3.1,-7.5 -7.5,-7.5 -3.7,0.3 -7.9,3.8 -7.5,7.8 z"
   id="path88"
   inkscape:connector-curvature="0"
   style="fill:#ed1c24" />
			</g>
		</g>
		<g
   id="g98">
			<g
   id="g96">
				<path
   d="m 103.7,315.5 c 5,25.1 7.2,50.7 6.7,76.3 -0.1,3.2 4.9,3.2 5,0 0.5,-26.1 -1.8,-52.1 -6.9,-77.6 -0.6,-3.2 -5.4,-1.9 -4.8,1.3 z"
   id="path94"
   inkscape:connector-curvature="0" />
			</g>
		</g>
		<g
   id="g104">
			<g
   id="g102">
				<path
   d="m 111.9,394.5 c 3.8,1.4 7.9,1.4 11.7,0.2 3,-1 1.7,-5.8 -1.3,-4.8 -3.1,1 -6,0.9 -9.1,-0.2 -3,-1.2 -4.3,3.7 -1.3,4.8 z"
   id="path100"
   inkscape:connector-curvature="0" />
			</g>
		</g>
		<g
   id="g110">
			<g
   id="g108">
				<path
   d="m 125.5,392.1 c 0.2,-11.4 0.5,-22.8 0.7,-34.2 0.1,-3.2 -4.9,-3.2 -5,0 -0.2,11.4 -0.5,22.8 -0.7,34.2 -0.1,3.2 4.9,3.2 5,0 z"
   id="path106"
   inkscape:connector-curvature="0" />
			</g>
		</g>
		<g
   id="g116">
			<g
   id="g114">
				<path
   d="m 123.1,360.8 c 4.9,-0.1 9.7,-0.2 14.6,-0.3 3.2,-0.1 3.2,-5.1 0,-5 -4.9,0.1 -9.7,0.2 -14.6,0.3 -3.2,0.1 -3.2,5.1 0,5 z"
   id="path112"
   inkscape:connector-curvature="0" />
			</g>
		</g>
		<g
   id="g122">
			<g
   id="g120">
				<path
   d="m 135.9,358.4 c 1.1,11.7 2.2,23.5 3.3,35.2 0.3,3.2 5.3,3.2 5,0 -1.1,-11.7 -2.2,-23.5 -3.3,-35.2 -0.3,-3.1 -5.3,-3.2 -5,0 z"
   id="path118"
   inkscape:connector-curvature="0" />
			</g>
		</g>
		<g
   id="g128">
			<g
   id="g126">
				<path
   d="m 143.7,396.5 c 2.9,-0.5 5.8,-0.6 8.8,-0.4 3.2,0.3 3.2,-4.7 0,-5 -3.4,-0.3 -6.7,-0.1 -10.1,0.5 -3.2,0.6 -1.9,5.5 1.3,4.9 z"
   id="path124"
   inkscape:connector-curvature="0" />
			</g>
		</g>
		<g
   id="g134">
			<g
   id="g132">
				<path
   d="m 107.2,316.4 c 2.9,0 5.8,-0.1 8.7,-0.1 -0.8,-0.6 -1.6,-1.2 -2.4,-1.8 2.4,11.3 4.8,22.6 7.2,34 0.2,1.1 1.4,1.8 2.4,1.8 5.4,0 10.7,0.1 16.1,0.1 3.2,0 3.2,-5 0,-5 -5.4,0 -10.7,-0.1 -16.1,-0.1 0.8,0.6 1.6,1.2 2.4,1.8 -2.4,-11.3 -4.8,-22.6 -7.2,-34 -0.2,-1.1 -1.4,-1.8 -2.4,-1.8 -2.9,0 -5.8,0.1 -8.7,0.1 -3.2,0 -3.2,5 0,5 z"
   id="path130"
   inkscape:connector-curvature="0" />
			</g>
		</g>
		<g
   id="g140">
			<g
   id="g138">
				<path
   d="m 142.5,346.2 c -3.2,-11.7 -5.5,-23.6 -6.9,-35.6 -0.4,-3.2 -5.4,-3.2 -5,0 1.4,12.5 3.8,24.8 7.1,37 0.8,3 5.6,1.7 4.8,-1.4 z"
   id="path136"
   inkscape:connector-curvature="0" />
			</g>
		</g>
		<g
   id="g146">
			<g
   id="g144">
				<path
   d="m 134,312.6 c 3,0.3 5.9,0.3 8.9,-0.1 1.3,-0.2 2.5,-1 2.5,-2.5 0,-1.2 -1.2,-2.7 -2.5,-2.5 -3,0.4 -5.9,0.4 -8.9,0.1 -1.4,-0.1 -2.5,1.3 -2.5,2.5 0,1.5 1.2,2.4 2.5,2.5 z"
   id="path142"
   inkscape:connector-curvature="0" />
			</g>
		</g>
		<g
   id="g152">
			<g
   id="g150">
				<path
   d="m 142.1,310.5 c 3,27.8 6,55.5 8.9,83.3 0.3,3.2 5.3,3.2 5,0 -3,-27.8 -6,-55.5 -8.9,-83.3 -0.4,-3.2 -5.4,-3.2 -5,0 z"
   id="path148"
   inkscape:connector-curvature="0" />
			</g>
		</g>
	</g>
	<g
   id="g210">
		<g
   class="st0"
   id="g160"
   style="opacity:0.75">
			<g
   id="g158">
				<path
   class="st4"
   d="m 156.5,307.3 c 3.8,1.4 7.7,1.4 11.5,0.1 -1.9,-4.6 -3.9,-9.1 -5.8,-13.7 -9.6,4.7 -9.2,16 -8.7,25.2 0.5,10.7 1.6,21.3 3.2,31.9 2.7,18.1 7.1,38.3 24.4,48 5.2,2.9 13.6,-2.1 11,-8.5 -0.8,-2 -1.6,-4 -2.4,-6 -3.1,3.1 -6.2,6.2 -9.2,9.2 0.6,0.2 1.2,1.1 1.5,1.6 3,7.5 14.5,7 14.7,-2 -0.1,-0.6 0,-1.2 0.4,-1.8 -3.9,-0.5 -7.9,-1 -11.8,-1.5 0.8,1.5 1.6,3 2.4,4.6 2.8,5.3 9.9,4.3 13,0 3.3,-4.7 3.1,-10.5 0.4,-15.4 -3.4,3.4 -6.8,6.8 -10.3,10.3 1.1,0.8 2.1,1.5 3.2,2.3 3.9,2.8 9.9,-0.1 11,-4.5 1,-3.8 3.1,-7 4.7,-10.5 1.8,-4 3.4,-8.1 4.6,-12.4 2.3,-7.9 3.4,-16.2 4.4,-24.4 0.9,-8 2,-16.2 1.8,-24.3 -0.2,-7.8 -1.2,-18.8 -9.1,-22.3 -8.7,-3.9 -15.6,7.4 -7.6,13 5.7,3.9 12.3,2.6 17.4,-1.5 3.2,-2.6 2.6,-7.9 0,-10.6 -3.1,-3.2 -7.5,-2.5 -10.6,0 1.4,0 1.6,-0.3 0.8,-0.9 -2.5,4.3 -5,8.6 -7.6,13 1.5,0.8 1.5,0.7 0.1,-0.3 0.2,0.5 0.3,1.1 0.5,1.6 0,1.5 0.7,3.2 0.9,4.7 0.4,3.4 0.2,6.9 0,10.3 -0.4,7.2 -1.2,14.5 -2.2,21.6 -1,6.9 -2.4,13.7 -4.6,20.3 -2.2,6.4 -6.3,12.1 -8,18.7 3.7,-1.5 7.3,-3 11,-4.5 -1.1,-0.8 -2.1,-1.5 -3.2,-2.3 -6.4,-4.6 -13.6,4.2 -10.3,10.3 0.3,-0.6 0.1,-0.6 -0.4,0.3 4.3,0 8.6,0 13,0 -0.8,-1.5 -1.6,-3 -2.4,-4.6 -2,-3.9 -8.8,-5.2 -11.8,-1.5 -3,3.8 -4.6,7.5 -4.7,12.4 4.9,-0.7 9.8,-1.3 14.7,-2 -2.4,-6 -5.9,-9.6 -11.9,-12.1 -5.1,-2.1 -11.2,4.2 -9.2,9.2 0.8,2 1.6,4 2.4,6 3.7,-2.8 7.3,-5.6 11,-8.5 -12.3,-6.9 -14.8,-22.5 -16.9,-35.2 -1.2,-7.6 -2.1,-15.3 -2.7,-23 -0.3,-3.9 -0.5,-7.7 -0.7,-11.6 -0.1,-2.4 -1.2,-8 1.4,-9.3 7.6,-3.7 2.3,-16.5 -5.8,-13.7 -1.9,0.6 -1.7,0.6 -3.5,-0.1 -9.1,-3.4 -13,11.1 -4,14.4 z"
   id="path156"
   inkscape:connector-curvature="0"
   style="fill:#28b0e5" />
			</g>
		</g>
		<g
   id="g166">
			<g
   id="g164">
				<path
   d="m 149.2,297.8 c 1.6,2.6 3.1,5.1 4.7,7.7 1.7,2.7 6,0.2 4.3,-2.5 -1.6,-2.6 -3.1,-5.1 -4.7,-7.7 -1.6,-2.7 -5.9,-0.2 -4.3,2.5 z"
   id="path162"
   inkscape:connector-curvature="0" />
			</g>
		</g>
		<g
   id="g172">
			<g
   id="g170">
				<path
   d="m 152,298.1 c 7.1,0.2 14.1,0.3 21.2,0.5 3.2,0.1 3.2,-4.9 0,-5 -7.1,-0.2 -14.1,-0.3 -21.2,-0.5 -3.3,-0.1 -3.3,4.9 0,5 z"
   id="path168"
   inkscape:connector-curvature="0" />
			</g>
		</g>
		<g
   id="g178">
			<g
   id="g176">
				<path
   d="m 171.5,295.3 c -2,2.4 -4,4.7 -6,7.1 -0.9,1 -1,2.5 0,3.5 0.9,0.9 2.7,1 3.5,0 2,-2.4 4,-4.7 6,-7.1 0.9,-1 1,-2.5 0,-3.5 -0.9,-0.9 -2.6,-1 -3.5,0 z"
   id="path174"
   inkscape:connector-curvature="0" />
			</g>
		</g>
		<g
   id="g184">
			<g
   id="g182">
				<path
   d="m 164.4,305.1 c 0.7,17.1 1.4,34.2 3.6,51.1 1.3,9.7 4.2,26.9 16.5,28.6 13.2,1.8 18,-18.7 20.3,-27.8 4,-15.9 5.3,-32.3 4.1,-48.6 -0.2,-3.2 -5.2,-3.2 -5,0 0.9,13.1 0.3,26.3 -2.2,39.3 -1.3,7 -6.6,36.8 -18.2,31.7 -10.4,-4.5 -10.7,-24 -11.6,-33.3 -1.3,-13.6 -1.9,-27.3 -2.5,-41 -0.1,-3.2 -5.1,-3.2 -5,0 z"
   id="path180"
   inkscape:connector-curvature="0" />
			</g>
		</g>
		<g
   id="g190">
			<g
   id="g188">
				<path
   d="m 153.5,304.8 c -0.1,16.7 -0.3,33.5 2.5,50 2.2,13.4 6,29.8 16.3,39.5 8.1,7.6 19.8,8.1 28,0.2 9.2,-8.8 13.1,-23.6 16,-35.6 4.1,-17.6 4.7,-35.8 2.1,-53.7 -0.5,-3.2 -5.3,-1.8 -4.8,1.3 2.6,17.8 1.7,36.2 -2.8,53.7 -3,11.6 -8.3,33.8 -23.2,35.1 -17,1.5 -23.4,-24.3 -25.9,-36.6 -3.6,-17.7 -3.4,-35.9 -3.3,-53.9 0.1,-3.3 -4.9,-3.3 -4.9,0 z"
   id="path186"
   inkscape:connector-curvature="0" />
			</g>
		</g>
		<g
   id="g196">
			<g
   id="g194">
				<path
   d="m 208.5,306.2 c -1.3,-2.8 -2.6,-5.6 -3.9,-8.3 -1.4,-2.9 -5.7,-0.4 -4.3,2.5 1.3,2.8 2.6,5.6 3.9,8.3 1.3,2.9 5.6,0.4 4.3,-2.5 z"
   id="path192"
   inkscape:connector-curvature="0" />
			</g>
		</g>
		<g
   id="g202">
			<g
   id="g200">
				<path
   d="m 202.5,298.9 c 6.5,-1.1 13,-1.5 19.6,-1.4 3.2,0.1 3.2,-4.9 0,-5 -7,-0.2 -14,0.4 -20.9,1.5 -3.2,0.6 -1.8,5.4 1.3,4.9 z"
   id="path198"
   inkscape:connector-curvature="0" />
			</g>
		</g>
		<g
   id="g208">
			<g
   id="g206">
				<path
   d="m 219.8,295.8 c -1.9,2.6 -3.7,5.2 -5.6,7.8 -0.8,1.1 -0.2,2.8 0.9,3.4 1.3,0.7 2.6,0.2 3.4,-0.9 1.9,-2.6 3.7,-5.2 5.6,-7.8 0.8,-1.1 0.2,-2.8 -0.9,-3.4 -1.2,-0.8 -2.6,-0.2 -3.4,0.9 z"
   id="path204"
   inkscape:connector-curvature="0" />
			</g>
		</g>
	</g>
	<g
   id="g266">
		<g
   id="g216">
			<g
   id="g214">
				<path
   d="m 232.4,399.1 c 2.8,-1.2 5.7,1.4 8.6,0.2 2.7,-1.1 3.5,-3.6 3.5,-6.3 0,-4.8 -0.8,-9.6 -0.8,-14.4 0.1,-5 0.5,-10.1 1.4,-15 0.7,-4.3 3.4,-15.7 9.9,-9.5 3.5,3.3 4,10.3 4.8,14.8 1.7,10.1 1.8,20.4 0.7,30.5 -0.3,3.2 4.7,3.2 5,0 1.3,-11.9 0.8,-23.8 -1.5,-35.5 -1.4,-7.1 -4.9,-18.7 -14.6,-16.2 -9.1,2.4 -9.5,16 -10.2,23.5 -0.6,6.2 -0.5,12.4 0.1,18.5 0.1,0.8 0.6,2.4 0.3,3.3 -0.9,2.7 -1.7,1.3 -3.2,1.2 -2.1,-0.1 -3.2,-0.7 -5.3,0.1 -3,1.2 -1.7,6 1.3,4.8 z"
   id="path212"
   inkscape:connector-curvature="0" />
			</g>
		</g>
		<g
   id="g222">
			<g
   id="g220">
				<path
   d="m 264.1,402 c 3.6,0.4 7.2,0.8 10.7,1.2 3.2,0.4 3.2,-4.6 0,-5 -3.6,-0.4 -7.2,-0.8 -10.7,-1.2 -3.2,-0.4 -3.2,4.6 0,5 z"
   id="path218"
   inkscape:connector-curvature="0" />
			</g>
		</g>
		<g
   id="g228">
			<g
   id="g226">
				<path
   d="m 278.9,400.1 c -1,-8.4 -1.2,-16.9 -0.1,-25.3 0.6,-4.6 1.5,-9.1 2.6,-13.6 0.4,-1.6 0.9,-3.3 1.4,-4.9 0.4,-1.2 0.9,-2.3 1.5,-3.3 1,-2.2 2.5,-2.8 4.5,-1.9 3.5,0.5 4,2.4 5,5.5 0.6,1.7 1,3.6 1.5,5.3 1.1,4.6 1.8,9.2 2.1,13.9 0.6,9 -0.3,18 -2.5,26.8 -0.8,3.1 4,4.5 4.8,1.3 2.8,-11.2 3.6,-22.8 2,-34.3 -1,-7.4 -2.5,-23.2 -12.2,-24.5 -9.9,-1.3 -12.6,12.1 -14.1,19.1 -2.6,11.8 -3.1,23.9 -1.6,35.9 0.5,3.2 5.5,3.2 5.1,0 z"
   id="path224"
   inkscape:connector-curvature="0" />
			</g>
		</g>
		<g
   id="g234">
			<g
   id="g232">
				<path
   d="m 297.4,405.2 c 8.4,5.4 16,-1.3 17.1,-9.8 1.8,-12.9 3,-27.2 0.4,-40.1 -2.1,-10.2 -8.1,-20.6 -18.1,-24.7 -8.8,-3.6 -18.4,-0.3 -24,7.1 -1.9,2.6 2.4,5.1 4.3,2.5 5.1,-6.8 14.1,-7.9 21.1,-3.3 6.7,4.4 10.3,12.1 11.9,19.7 1.7,8.3 1.2,17 0.7,25.5 -0.4,5.6 -0.2,25.5 -10.8,18.7 -2.8,-1.6 -5.3,2.7 -2.6,4.4 z"
   id="path230"
   inkscape:connector-curvature="0" />
			</g>
		</g>
		<g
   id="g240">
			<g
   id="g238">
				<path
   d="m 275.5,337.8 c -10.9,-11 -27.7,-12.5 -40.2,-3.4 -2.6,1.9 -0.1,6.2 2.5,4.3 10.8,-7.9 24.7,-6.9 34.2,2.6 2.2,2.3 5.7,-1.2 3.5,-3.5 z"
   id="path236"
   inkscape:connector-curvature="0" />
			</g>
		</g>
		<g
   id="g246">
			<g
   id="g244">
				<path
   d="m 238,336.8 c -0.4,-3.4 -0.8,-6.8 -1.2,-10.2 -0.4,-3.2 -5.4,-3.2 -5,0 0.4,3.4 0.8,6.8 1.2,10.2 0.4,3.2 5.4,3.2 5,0 z"
   id="path242"
   inkscape:connector-curvature="0" />
			</g>
		</g>
		<g
   id="g252">
			<g
   id="g250">
				<path
   d="m 233.8,323.8 c -3,-0.7 -6.1,-1.1 -9.1,-1.2 -3.2,-0.1 -3.2,4.9 0,5 2.6,0.1 5.2,0.4 7.8,1 3.1,0.7 4.4,-4.1 1.3,-4.8 z"
   id="path248"
   inkscape:connector-curvature="0" />
			</g>
		</g>
		<g
   id="g258">
			<g
   id="g256">
				<path
   d="m 221.1,325.9 c 1.1,15.3 2.1,30.6 3.2,45.9 0.5,7.2 0.5,14.6 1.5,21.7 0.6,3.9 2.9,6.6 7,5.7 3.2,-0.6 1.8,-5.4 -1.3,-4.8 -0.5,0.1 -2.8,-31.4 -3,-34.4 -0.8,-11.4 -1.6,-22.8 -2.4,-34.2 -0.2,-3.1 -5.2,-3.1 -5,0.1 z"
   id="path254"
   inkscape:connector-curvature="0" />
			</g>
		</g>
		<g
   class="st0"
   id="g264"
   style="opacity:0.75">
			<g
   id="g262">
				<path
   d="m 302.1,405.9 c 5.1,1.3 10.8,-1.4 11.8,-6.9 0.7,-3.7 -1,-8.5 -5.2,-9.2 -0.5,-0.1 -1.1,-0.2 -1.6,-0.3 1.7,3.1 3.5,6.2 5.2,9.2 0.6,-2 1.1,-4 1.7,-5.9 2,-6.9 -5.3,-10.9 -11,-8.5 -0.3,0.1 -0.5,0.2 -0.8,0.3 2.5,0 5,0 7.6,0 0.5,0.4 1,0.9 1.5,1.3 0.3,1.9 0.5,3.9 0.8,5.8 -0.7,2 0.7,-0.7 1.1,-1.4 0.8,-1.4 1.4,-2.8 1.4,-4.4 0,-1.1 0,-2.4 -0.3,-3.4 -0.2,-1 -0.7,-1.8 -1.3,-2.6 -1.1,-1.5 -0.9,-1 0.5,1.5 -0.3,1.3 -0.7,2.5 -1,3.8 0.1,0 0.1,0 0.2,-0.1 5.1,-3.1 4.9,-12.6 -1.8,-13.7 -1.3,-0.2 -2.6,-0.4 -3.9,-0.7 1.5,3.7 3,7.3 4.5,11 1.3,-1.8 2.7,-3.7 4,-5.5 3.4,-4.7 -1.2,-11.4 -6.5,-11.3 -1.6,0 -3.2,0.1 -4.8,0.1 1.8,4.3 3.5,8.5 5.3,12.8 1.9,-1.8 3.8,-3.6 5.8,-5.4 5,-4.7 0.9,-12.5 -5.3,-12.8 -1.9,-0.1 -3.7,-0.2 -5.6,-0.3 2.2,3.8 4.3,7.5 6.5,11.3 1.4,-2.2 2.7,-4.3 4.1,-6.5 3.1,-4.9 -0.9,-11.2 -6.5,-11.3 -1.9,0 -3.8,0 -5.7,-0.1 1.8,4.3 3.5,8.5 5.3,12.8 1.4,-1.8 2.8,-3.5 4.2,-5.3 4.3,-5.3 0.5,-15 -7.3,-12.5 -1.6,0.5 -3.2,1 -4.7,1.5 2.8,3.7 5.6,7.3 8.5,11 1.3,-1.8 2.7,-3.6 4,-5.4 3.2,-4.3 -1.1,-11.9 -6.5,-11.3 -2.2,0.3 -4.5,0.5 -6.7,0.8 2.5,2.5 5,5 7.5,7.5 -1.2,1.4 -1.1,1.7 0.3,0.8 6.7,-2.8 3.4,-14.8 -3.8,-14 -2.1,0.3 -4.2,0.5 -6.3,0.8 2.2,3.8 4.3,7.5 6.5,11.3 0.9,-1.6 1.8,-3.1 2.8,-4.7 4.1,-6.9 -3.8,-13.3 -10.3,-10.3 -1.9,0.9 -3.8,1.8 -5.7,2.7 3.4,3.4 6.8,6.8 10.3,10.3 0.9,-2 1.7,-3.9 2.6,-5.9 1.4,-3.1 1.4,-6.6 -1.2,-9.1 -2.2,-2.2 -6.4,-3.1 -9.1,-1.2 -2.3,1.7 -4.7,3.3 -7,5 3.7,2.8 7.3,5.6 11,8.5 0.4,-1.4 0.4,-1.7 -0.1,-0.8 5,-3.5 4.9,-12.1 -1.8,-13.7 -8.5,-2 -16,0 -22.8,5.3 -4.6,3.6 -1.6,11.1 3.3,12.5 1.9,0.5 3.8,1.1 5.6,1.6 -0.6,-4.6 -1.2,-9.1 -1.8,-13.7 -8.7,4.8 -11.7,14.6 -13.5,23.8 -2.3,11.2 -3,22.7 -2,34.1 2.5,-2.5 5,-5 7.5,-7.5 -0.4,0 -0.7,0.1 -1.1,0.1 1.3,0.3 2.5,0.7 3.8,1 1.5,2.1 2,2.3 1.5,0.7 -0.1,-0.6 -0.2,-1.2 -0.3,-1.8 -0.2,-1.5 -0.4,-3 -0.6,-4.5 -0.3,-3.1 -0.4,-6.2 -0.3,-9.3 0.1,-6.5 1,-12.9 2.7,-19.3 1.4,-5.3 3.1,-10.9 -0.9,-15.5 -4,-4.6 -10.5,-4.9 -14.9,-0.7 3.9,0.5 7.9,1 11.8,1.5 -3.3,-6.8 -10.4,-10.1 -17.6,-10.9 -3.7,-0.4 -7.5,-0.2 -11.2,0.6 -3.4,0.8 -7.3,3.9 -10.6,3.5 1.3,0.3 2.5,0.7 3.8,1 -1.3,-0.6 -1.1,-1.7 -1.2,-3.3 -0.6,-9.6 -15.6,-9.7 -15,0 0.8,13.2 1.6,26.3 2.3,39.5 0.6,10.6 -1.8,27 12.2,28.8 4,0.5 7.5,-3.9 7.5,-7.5 0,-6.3 0,-12.6 0,-19 0,-2.8 0,-5.7 0,-8.5 0,-1.6 0,-3.2 0,-4.7 0,-0.6 0,-1.3 0,-1.9 0.1,-1.9 -0.3,-1.3 -1.3,1.6 -1.8,0.7 -3.5,1.5 -5.3,2.2 0.4,-0.1 0.8,-0.1 1.2,-0.2 -1.3,-0.3 -2.5,-0.7 -3.8,-1 0.2,0.1 0.3,0.3 0.5,0.4 4.2,4.8 13.2,1 12.8,-5.3 -0.1,-1.5 -0.2,-3 -0.3,-4.6 -0.5,-9.6 -15.1,-9.7 -15,0 0,0.7 0,1.3 0,2 4.9,-0.7 9.8,-1.3 14.7,-2 -0.3,-1.5 -0.6,-3 -0.9,-4.5 -4.2,2.4 -8.4,4.9 -12.5,7.3 0.7,0.7 1.3,1.4 2,2.2 4.8,5.2 12.3,0.7 12.8,-5.3 0,-0.5 0.1,-1.1 0.1,-1.6 -0.3,1.3 -0.7,2.5 -1,3.8 0.1,-0.9 0.6,-1.5 1.4,-1.7 -1.9,0.3 -3.9,0.5 -5.8,0.8 -0.6,-0.4 -1.1,-0.7 -1.7,-1.1 -0.7,-1.8 -1.5,-3.5 -2.2,-5.3 0,0.3 0,0.6 0.1,0.9 0.5,6.6 7.8,9.7 12.8,5.3 3.4,-2.9 -4.3,0.6 0.9,-0.5 1.6,-0.4 3.2,-1.2 4.7,-1.8 -3.8,-2.2 -7.5,-4.3 -11.3,-6.5 0.3,4.3 2.5,7.7 6.9,8.8 1,0.2 1.9,0.3 2.9,0.3 -1.7,-1.1 -1.8,-1.1 -0.5,0 0.7,1 3.2,2.3 3.5,3.3 0,-1.3 0,-2.7 0,-4 1.1,-1.8 1,-2 -0.3,-0.6 -7.3,6.3 3.3,16.9 10.6,10.6 6,-5.2 4.9,-11.4 -0.2,-16.8 -1.8,-2 -4,-4.4 -6.3,-5.8 -1.1,-0.6 -2.3,-1.1 -3.4,-1.3 -0.9,-0.1 -1.7,-0.3 -2.6,-0.4 -1.9,-0.1 -1.1,0.4 2.3,1.4 0.7,1.8 1.5,3.5 2.2,5.3 0,-0.3 0,-0.6 -0.1,-0.8 -0.5,-6 -5.9,-8.9 -11.3,-6.5 -1.1,0.5 -2.6,0.5 -3.8,1.1 -1.9,0.9 -3.3,2.3 -4.8,3.7 4.3,1.8 8.5,3.5 12.8,5.3 -0.4,-5.6 -5.1,-10.5 -11.2,-8.9 -5.9,1.6 -9.3,7.5 -9.8,13.2 4.3,-1.8 8.5,-3.5 12.8,-5.3 -0.7,-0.7 -1.3,-1.4 -2,-2.2 -5.4,-5.8 -13.9,0.4 -12.5,7.3 0.3,1.5 0.6,3 0.9,4.5 1.7,8.4 14.8,6.4 14.7,-2 0,-0.7 0,-1.3 0,-2 -5,0 -10,0 -15,0 0.1,1.5 0.2,3 0.3,4.6 4.3,-1.8 8.5,-3.5 12.8,-5.3 -3.2,-3.7 -8.9,-5.1 -13.1,-2 -3.8,2.9 -3.9,7.2 -3.9,11.5 0,10.8 0,21.5 0,32.3 2.5,-2.5 5,-5 7.5,-7.5 -0.4,-0.1 -0.8,-0.1 -1.2,-0.2 1.3,0.3 2.5,0.7 3.8,1 1,1.9 1.4,2.2 1.2,1.1 -0.1,-1.3 -0.2,-2.6 -0.2,-4 -0.2,-2.6 -0.3,-5.3 -0.5,-7.9 -0.3,-4.6 -0.5,-9.2 -0.8,-13.8 -0.6,-9.9 -1.2,-19.8 -1.8,-29.6 -5,0 -10,0 -15,0 0.6,9.3 5.7,19.6 16.9,17.1 5.9,-1.3 17.9,-9.1 22.1,-0.5 2.2,4.5 8.5,4.6 11.8,1.5 -0.5,0.3 -1.1,0.7 -1.6,1 -1.3,0 -2.7,0 -4,0 -0.9,-1.2 -1.7,-2.3 -2.6,-3.5 -0.1,0.4 -0.3,0.9 -0.4,1.3 -0.7,1 -0.9,3.3 -1.2,4.5 -0.7,2.7 -1.2,5.5 -1.6,8.3 -0.8,5.6 -1.3,11.2 -1.1,16.9 0.2,8 0,26.1 12,25.1 3.8,-0.3 7.9,-3.2 7.5,-7.5 -0.7,-8.8 -0.7,-17.7 0.8,-26.4 0.9,-5.7 1.7,-15.5 7.3,-18.6 5.7,-3.1 4.3,-12 -1.8,-13.7 -1.9,-0.5 -3.8,-1.1 -5.6,-1.6 1.1,4.2 2.2,8.4 3.3,12.5 2.3,-1.8 5.4,-2.1 8.2,-1.5 -0.6,-4.6 -1.2,-9.1 -1.8,-13.7 -3.5,2.4 -6.1,5.5 -6.8,9.8 -0.9,5.7 5.1,12.7 11,8.5 2.3,-1.7 4.7,-3.3 7,-5 -3.4,-3.4 -6.8,-6.8 -10.3,-10.3 -0.9,2 -1.7,3.9 -2.6,5.9 -3.1,6.9 3.2,13.6 10.3,10.3 1.9,-0.9 3.8,-1.8 5.7,-2.7 -3.4,-3.4 -6.8,-6.8 -10.3,-10.3 -0.9,1.6 -1.8,3.1 -2.8,4.7 -2.6,4.5 0.6,12 6.5,11.3 2.1,-0.3 4.2,-0.5 6.3,-0.8 -1.3,-4.7 -2.5,-9.3 -3.8,-14 -5,2.1 -7.4,6.9 -7.8,12.1 -0.3,3.7 3.7,8 7.5,7.5 2.2,-0.3 4.5,-0.5 6.7,-0.8 -2.2,-3.8 -4.3,-7.5 -6.5,-11.3 -1.3,1.8 -2.7,3.6 -4,5.4 -3.9,5.3 2.6,12.9 8.5,11 1.6,-0.5 3.2,-1 4.7,-1.5 -2.4,-4.2 -4.9,-8.4 -7.3,-12.5 -1.4,1.8 -2.8,3.5 -4.2,5.3 -3.9,4.9 -1.7,12.7 5.3,12.8 1.9,0 3.8,0 5.7,0.1 -2.2,-3.8 -4.3,-7.5 -6.5,-11.3 -1.4,2.2 -2.7,4.3 -4.1,6.5 -3.2,5.1 1,11 6.5,11.3 1.9,0.1 3.7,0.2 5.6,0.3 -1.8,-4.3 -3.5,-8.5 -5.3,-12.8 -1.9,1.8 -3.8,3.6 -5.8,5.4 -4.8,4.4 -1.1,12.9 5.3,12.8 1.6,0 3.2,-0.1 4.8,-0.1 -2.2,-3.8 -4.3,-7.5 -6.5,-11.3 -1.3,1.8 -2.7,3.7 -4,5.5 -2.7,3.7 0,10.3 4.5,11 1.3,0.2 2.6,0.4 3.9,0.7 -0.6,-4.6 -1.2,-9.1 -1.8,-13.7 -7,4.2 -8.6,11.2 -3.4,17.5 -0.7,-1.8 -1.5,-3.5 -2.2,-5.3 0,0.5 0,0.9 0,1.4 0.3,-1.3 0.7,-2.5 1,-3.8 -2.4,4 -4.8,7.8 -1.9,12.4 2.8,4.4 7.5,4.7 11.9,2.8 -3.7,-2.8 -7.3,-5.6 -11,-8.5 -0.6,2 -1.1,4 -1.7,5.9 -1,3.6 1.3,8.6 5.2,9.2 0.5,0.1 1.1,0.2 1.6,0.3 -1.7,-3.1 -3.5,-6.2 -5.2,-9.2 1.2,-1.1 2.3,-2.2 3.5,-3.3 1.3,0 2.7,0 4,0 -0.3,-0.1 -0.6,-0.2 -0.9,-0.2 -9.1,-2.1 -13.1,12.4 -3.7,14.8 z"
   id="path260"
   inkscape:connector-curvature="0" />
			</g>
		</g>
	</g>
	<g
   id="g328">
		<g
   class="st0"
   id="g272"
   style="opacity:0.75">
			<g
   id="g270">
				<path
   class="st5"
   d="m 336.2,340.7 c 0.1,-4.1 0.7,-8.1 2,-12 0.8,-2.5 2.7,-8.7 5.7,-9 -2.1,-2.7 -4.2,-5.5 -6.3,-8.2 -0.3,0.8 -0.6,1.6 -0.9,2.4 -2.4,6.7 6.4,10 10.9,6.3 0.9,-0.7 1.8,-1.5 2.7,-2.2 -3.7,-1.5 -7.4,-3.1 -11.1,-4.6 0.3,3.2 1.1,5.8 3.6,8 2.6,2.2 6.7,2.8 9.2,0 0.2,-0.2 0.4,-0.4 0.6,-0.6 -3.1,0 -6.1,0 -9.2,0 8.7,7.4 11.3,21.3 13.2,32 2.3,12.8 2.2,26.1 0.1,39 4.3,0.6 8.5,1.2 12.8,1.7 0.9,-7.5 -4.1,-17 -13.1,-13.9 -6.6,2.3 -10,13.3 -18.3,11.2 -7.7,-2 -4.1,-15 -1.4,-19.6 4.3,-7.5 12.2,-11.3 20.6,-11.2 8.4,0.1 8.4,-12.9 0,-13 -20.8,-0.3 -38.7,17.5 -36.4,38.7 1.1,9.8 7.5,17.7 17.8,18.2 4.8,0.3 9.8,-1.3 13.8,-4 2,-1.3 3.9,-2.9 5.5,-4.6 0.6,-0.6 1.7,-1.5 2.1,-2.4 1.4,-1.1 1,-1.5 -1.2,-1.1 -1.9,-0.8 -2.6,-0.3 -2.2,1.6 -0.8,7.2 11.6,9 12.8,1.7 2.6,-15.3 2.6,-30.6 -0.1,-45.9 -2.3,-12.9 -6,-28.8 -16.5,-37.7 -2.6,-2.2 -6.7,-2.8 -9.2,0 -0.2,0.2 -0.4,0.4 -0.6,0.6 3.1,0 6.1,0 9.2,0 0.1,0.4 0.1,0.8 0.2,1.2 -0.5,-5.8 -6.6,-8.3 -11.1,-4.6 -0.9,0.7 -1.8,1.5 -2.7,2.2 3.6,2.1 7.2,4.2 10.9,6.3 0.3,-0.8 0.6,-1.6 0.9,-2.4 1.4,-3.8 -2.3,-8.5 -6.3,-8.2 -15.6,1.2 -20.4,21 -20.8,33.9 -0.4,8.6 12.6,8.6 12.8,0.2 z"
   id="path268"
   inkscape:connector-curvature="0"
   style="fill:#39b54a" />
			</g>
		</g>
		<g
   id="g278">
			<g
   id="g276">
				<path
   d="m 333.9,341 c -2.7,0.1 -5.4,0.3 -8.2,0.4 -3.2,0.2 -3.2,5.2 0,5 2.7,-0.1 5.4,-0.3 8.2,-0.4 3.2,-0.2 3.2,-5.2 0,-5 z"
   id="path274"
   inkscape:connector-curvature="0" />
			</g>
		</g>
		<g
   id="g284">
			<g
   id="g282">
				<path
   d="m 368.3,400.4 c 0.2,-1.2 0.5,-2.4 0.8,-3.5 -1.6,-0.4 -3.2,-0.9 -4.8,-1.3 -0.2,1.2 -0.5,2.4 -0.8,3.6 -0.3,1.3 0.4,2.8 1.7,3.1 1.3,0.2 2.8,-0.5 3.1,-1.9 0.3,-1.2 0.5,-2.3 0.8,-3.5 0.3,-1.3 -0.4,-2.8 -1.7,-3.1 -1.3,-0.3 -2.8,0.4 -3.1,1.7 -0.3,1.2 -0.5,2.4 -0.8,3.5 -0.3,1.3 0.4,2.8 1.7,3.1 1.3,0.4 2.8,-0.3 3.1,-1.7 z"
   id="path280"
   inkscape:connector-curvature="0" />
			</g>
		</g>
		<g
   id="g290">
			<g
   id="g288">
				<path
   d="m 327.6,343.8 c -0.7,-10.4 0.6,-26.2 10.5,-32.4 10.7,-6.7 17.2,8.8 20.1,16.4 8.7,22.7 10.2,47.4 5.3,71.2 -0.6,3.1 4.2,4.5 4.8,1.3 5.6,-27.4 4.1,-60.2 -10.4,-84.9 -5.2,-8.7 -14.6,-14.3 -23.7,-7.3 -10.4,7.9 -12.4,23.7 -11.6,35.8 0.2,3.1 5.2,3.1 5,-0.1 z"
   id="path286"
   inkscape:connector-curvature="0" />
			</g>
		</g>
		<g
   id="g296">
			<g
   id="g294">
				<path
   d="m 357,388.7 c -0.4,2.8 -0.9,5.5 -1.4,8.3 -0.6,3.1 4.2,4.5 4.8,1.3 0.5,-2.8 1,-5.5 1.4,-8.3 0.2,-1.3 -0.3,-2.7 -1.7,-3.1 -1.2,-0.3 -2.9,0.5 -3.1,1.8 z"
   id="path292"
   inkscape:connector-curvature="0" />
			</g>
		</g>
		<g
   id="g302">
			<g
   id="g300">
				<path
   d="m 357.9,358.6 c 0.7,7 0.7,13.9 0.2,20.8 -0.2,3.2 4.8,3.2 5,0 0.5,-7 0.5,-13.9 -0.2,-20.8 -0.3,-3.1 -5.3,-3.2 -5,0 z"
   id="path298"
   inkscape:connector-curvature="0" />
			</g>
		</g>
		<g
   id="g308">
			<g
   id="g306">
				<path
   d="m 336.7,343.2 c 0.2,-4.1 1.6,-24.6 9.8,-18.8 3.4,2.4 5,8.1 6.3,11.7 1.6,4.6 2.8,9.3 3.8,14 0.6,3.1 5.5,1.8 4.8,-1.3 -1.4,-7.1 -3.4,-14.2 -6.4,-20.7 -2,-4.2 -5.2,-9.6 -10.4,-9.8 -11.4,-0.5 -12.4,17.3 -12.8,24.9 -0.3,3.3 4.7,3.2 4.9,0 z"
   id="path304"
   inkscape:connector-curvature="0" />
			</g>
		</g>
		<g
   id="g314">
			<g
   id="g312">
				<path
   d="m 357.1,400.1 c 2.7,0.7 5.4,1.5 8.1,2.2 3.1,0.8 4.4,-4 1.3,-4.8 -2.7,-0.7 -5.4,-1.5 -8.1,-2.2 -3.1,-0.9 -4.4,4 -1.3,4.8 z"
   id="path310"
   inkscape:connector-curvature="0" />
			</g>
		</g>
		<g
   id="g320">
			<g
   id="g318">
				<path
   d="m 357.3,387.8 c -4.8,6.1 -12.3,15.3 -21.3,13.5 -8.8,-1.8 -11.1,-12.9 -10.1,-20.4 2.1,-15 15.4,-32.4 32.2,-28.8 3.1,0.7 4.5,-4.1 1.3,-4.8 -21,-4.5 -38.4,17.4 -38.8,36.9 -0.2,9.1 4.3,19.8 14,22 10.9,2.5 20.1,-7 26.2,-14.8 2,-2.6 -1.6,-6.2 -3.5,-3.6 z"
   id="path316"
   inkscape:connector-curvature="0" />
			</g>
		</g>
		<g
   id="g326">
			<g
   id="g324">
				<path
   d="m 360,355.5 c -13.9,-0.8 -32.6,10.1 -32,25.8 0.3,6.5 5.1,12.9 12,13.1 8.7,0.2 14.8,-8.2 21.7,-12.2 2.8,-1.6 0.3,-5.9 -2.5,-4.3 -4.8,2.8 -8.6,7.1 -13.5,9.8 -2.8,1.6 -5.6,2.4 -8.5,0.8 -3.8,-2.1 -4.8,-7 -3.8,-11 2.8,-11 16.1,-17.5 26.6,-16.9 3.2,0.1 3.2,-4.9 0,-5.1 z"
   id="path322"
   inkscape:connector-curvature="0" />
			</g>
		</g>
	</g>
	<g
   id="g348">
		<g
   class="st0"
   id="g334"
   style="opacity:0.75">
			<g
   id="g332">
				<path
   class="st6"
   d="m 449.9,306.1 c -1.9,3.7 -3.7,7.3 -5.6,11 2.8,0.8 5.6,1.5 8.4,2.3 0.1,-1.9 0.3,-3.9 0.4,-5.8 0.3,-4.8 -6.1,-5.7 -8.4,-2.3 -2.1,3.1 -4.1,6.2 -6.2,9.3 -2.4,3.6 1.5,7.2 5.1,6.6 1.3,-0.2 2.7,-0.5 4,-0.7 -1.5,-2.5 -2.9,-5 -4.4,-7.5 -2,2.2 -4,4.3 -6,6.5 2.5,1.5 5,2.9 7.5,4.4 0.2,-0.7 0.4,-1.4 0.6,-2.1 -2.9,-0.8 -5.8,-1.6 -8.7,-2.4 -2.3,10.8 -4.6,21.8 -4,32.9 0.6,9.9 3.5,19.3 8.1,28 1.5,2.8 4.9,2.6 7.1,0.9 0.7,-0.6 1.4,-1.1 2.1,-1.7 -2.6,-1.1 -5.1,-2.1 -7.7,-3.2 -0.2,1.7 -0.4,3.4 -0.6,5.1 -0.2,1.4 1,3.3 2.2,3.9 5.3,2.4 10.2,-1 9,-7 -2.7,1.2 -5.5,2.3 -8.2,3.5 0.9,1.8 1.8,3.6 2.6,5.4 1.6,3.3 6,2.5 7.8,0 1.4,-2 1.9,-4 1.7,-6.4 -2.8,0.8 -5.6,1.5 -8.4,2.3 1.4,2.1 2.7,4.1 4.1,6.2 1.9,2.9 5.9,2.9 7.8,0 0.6,-1 1.2,-1.9 1.8,-2.9 -0.9,0.7 -1.8,1.4 -2.7,2.1 -0.8,-1.4 -1.5,-2.9 -2.3,-4.3 -3.4,3.6 1.1,10.1 5.5,7.1 1.6,-1.1 3.2,-2.2 4.8,-3.3 -2.2,-0.9 -4.4,-1.8 -6.6,-2.7 0.2,1.1 0.4,2.2 0.6,3.4 1,5.5 8.3,3.4 8.8,-1.2 0,0.3 0,0.7 0,1 1.6,0.7 4.4,-0.4 5.1,-2.1 0.9,-2 1.8,-2.6 3.9,-2.9 -1.7,-2.2 -3.4,-4.4 -5.1,-6.6 -0.7,1.2 -1.4,2.4 -2,3.6 -2.6,4.6 3.3,8.7 7.1,5.5 2.3,-2 4.7,-4 7,-5.9 2.4,-2 1.3,-7 -2,-7.5 -1.7,-0.2 -3.4,-0.5 -5.1,-0.7 0.7,2.5 1.3,5 2,7.5 1.1,-1.3 1.7,-1.6 3.4,-1.6 2.3,0.1 4.7,-2.2 4.5,-4.5 -0.5,-6.6 3.6,-14.6 5.6,-20.8 0.7,-2.2 -0.8,-5.1 -3.1,-5.5 -0.5,-0.1 -1.1,-0.2 -1.6,-0.3 1.1,1.4 2.2,2.9 3.3,4.3 0.1,-1.9 0.6,-3.3 1.9,-4.7 -2.4,-1.8 -4.7,-3.6 -7.1,-5.5 -1.5,3.2 -1.8,5.7 -1.1,9.2 0.8,3.7 6.5,4.5 8.2,1.1 3.5,-6.9 -0.5,-13.7 -8.1,-14.3 1.4,1.9 2.9,3.8 4.3,5.7 0.2,-0.2 0.3,-0.4 0.5,-0.5 4.2,-0.2 5.5,-4.7 3.2,-7.7 -1.7,-2.2 -4,-3.5 -6.7,-3.9 0.7,2.5 1.3,5 2,7.5 1.4,-1.4 2.7,-2.7 4.1,-4.1 2.5,-2.5 1.2,-6.5 -2,-7.5 -1.4,-0.5 -2.8,-0.9 -4.2,-1.4 0.7,2.5 1.3,5 2,7.5 1.3,-1.3 2.6,-2.7 3.9,-4 2.7,-2.8 0.7,-7.6 -3.2,-7.7 -0.8,0.1 -1.6,0 -2.4,-0.2 0.3,2.4 0.6,4.7 0.9,7.1 1.2,-1.1 2.3,-2.2 3.5,-3.3 2.7,-2.5 0.8,-8 -3.2,-7.7 -1.5,0.1 -3,0.3 -4.5,0.4 1.1,2.6 2.1,5.1 3.2,7.7 1.5,-1.6 2.9,-3.2 4.4,-4.8 2.5,-2.7 0.9,-7.8 -3.2,-7.7 -2,0.1 -4,0.2 -6,0.2 0.4,2.9 0.8,5.9 1.2,8.8 4.9,-1.7 8.5,-6.7 5.2,-11.7 -2.9,-4.4 -8.7,-3.5 -11.4,0.5 2.8,0.8 5.6,1.5 8.4,2.3 0.1,-0.2 0.1,-0.4 0.2,-0.6 4.6,-2.6 1.4,-9.2 -3.5,-8.2 -2.2,0.4 -4.4,0.8 -6.6,1.3 1.2,2.7 2.3,5.5 3.5,8.2 4.3,-2.5 8.2,-8.5 3.2,-12.7 -4.7,-4 -10,-0.2 -12.7,4 2.8,0.8 5.6,1.5 8.4,2.3 0.3,-2.4 0.6,-4.8 0.8,-7.2 0.3,-2.3 -2.3,-4.6 -4.5,-4.5 -5.5,0.3 -9.4,4 -9.4,9.6 2.3,-1.3 4.5,-2.6 6.8,-3.9 0.1,0.2 0.1,0.3 -0.1,0.5 2,-2.5 1.6,-6.6 -2,-7.5 -4.4,-1.1 -6.7,0.9 -9.8,3.7 -1.6,1.4 -0.9,0.9 -3.1,0.9 -1.8,0 -3.6,0.9 -5.1,1.8 1.8,2.4 3.6,4.7 5.5,7.1 2.6,-2.5 5.3,-4.9 7.9,-7.4 4.2,-4 -2.1,-10.3 -6.4,-6.4 -2.6,2.5 -5.3,4.9 -7.9,7.4 -3.7,3.5 1.1,9.7 5.5,7.1 1.9,-1.1 -0.5,-0.2 1.4,-0.3 1.5,-0.1 2.7,0.1 4.2,-0.4 0.6,-0.2 6,-4.7 5.5,-4.8 -0.7,-2.5 -1.3,-5 -2,-7.5 -3.6,4.6 -3,10.2 1.9,13.7 2.9,2 6.7,-0.7 6.8,-3.9 0.1,-0.2 0.3,-0.4 0.4,-0.6 -1.5,-1.5 -3,-3 -4.5,-4.5 -0.3,2.4 -0.6,4.8 -0.8,7.2 -0.6,4.7 6.2,5.7 8.4,2.3 1.9,-1.8 0.9,-3 -2.8,-3.7 -4.6,2.7 -1.4,9.2 3.5,8.2 2.2,-0.4 4.4,-0.8 6.6,-1.3 -1.2,-2.7 -2.3,-5.5 -3.5,-8.2 -3.1,1.8 -4.9,4.8 -4.6,8.4 0.3,4.4 5.9,6.1 8.4,2.3 -1.3,-0.7 -2.6,-1.4 -4,-2.1 -4.6,1.6 -4.1,9 1.2,8.8 2,-0.1 4,-0.2 6,-0.2 -1.1,-2.6 -2.1,-5.1 -3.2,-7.7 -1.5,1.6 -2.9,3.2 -4.4,4.8 -2.4,2.6 -0.9,8.1 3.2,7.7 1.5,-0.1 3,-0.3 4.5,-0.4 -1.1,-2.6 -2.1,-5.1 -3.2,-7.7 -1.2,1.1 -2.3,2.2 -3.5,3.3 -2.1,2 -1.5,5.6 0.9,7.1 2.3,1.4 4.2,1.4 6.9,1.4 -1.1,-2.6 -2.1,-5.1 -3.2,-7.7 -1.3,1.3 -2.6,2.7 -3.9,4 -2.4,2.5 -1.2,6.5 2,7.5 1.4,0.5 2.8,0.9 4.2,1.4 -0.7,-2.5 -1.3,-5 -2,-7.5 -1.4,1.4 -2.7,2.7 -4.1,4.1 -2.2,2.2 -1.5,7 2,7.5 1.3,-0.1 2.2,0.4 2.7,1.6 1.1,-2.6 2.1,-5.1 3.2,-7.7 -4.6,0.2 -7.9,2.7 -9.2,7.1 -0.8,3 1.5,5.4 4.3,5.7 0.1,0.3 0.2,0.5 0.3,0.8 2.7,0.4 5.5,0.7 8.2,1.1 0.1,-0.7 0.1,-1.5 0.2,-2.2 2,-4.3 -3.4,-9.5 -7.1,-5.5 -2.9,3.2 -4.4,6.7 -4.5,11.1 -0.1,1.8 1.4,4 3.3,4.3 0.5,0.1 1.1,0.2 1.6,0.3 -1,-1.8 -2.1,-3.7 -3.1,-5.5 -2.3,7.2 -6.5,15.6 -5.9,23.2 1.5,-1.5 3,-3 4.5,-4.5 -3.8,-0.2 -7.3,1.2 -9.8,4.2 -1.9,2.3 -1.7,7 2,7.5 1.7,0.2 3.4,0.5 5.1,0.7 -0.7,-2.5 -1.3,-5 -2,-7.5 -2.3,2 -4.7,4 -7,5.9 2.4,1.8 4.7,3.6 7.1,5.5 0.7,-1.2 1.4,-2.4 2,-3.6 2.1,-3.7 -1.4,-7.1 -5.1,-6.6 -4.1,0.6 -7.6,3.2 -9.3,7.1 1.7,-0.7 3.4,-1.4 5.1,-2.1 -6,-2.4 -10.6,1.9 -11.4,7.7 2.9,-0.4 5.9,-0.8 8.8,-1.2 -0.2,-1.1 -0.4,-2.2 -0.6,-3.4 -0.5,-2.7 -4.3,-4.3 -6.6,-2.7 -1.6,1.1 -3.2,2.2 -4.8,3.3 1.8,2.4 3.6,4.7 5.5,7.1 2.8,-2.9 3.1,-7.6 -0.6,-10.1 -4.7,-3.1 -8,0.5 -10.4,4.3 2.6,0 5.2,0 7.8,0 -1.4,-2.1 -2.7,-4.1 -4.1,-6.2 -2.2,-3.4 -8.9,-2.5 -8.4,2.3 -0.1,0.6 -0.3,1.2 -0.4,1.8 2.6,0 5.2,0 7.8,0 -0.9,-1.8 -1.8,-3.6 -2.6,-5.4 -2.3,-4.8 -9.3,-1.3 -8.2,3.5 0.1,0.4 0.2,0.7 0.2,1.1 0.2,-1.2 0.3,-2.3 0.5,-3.5 -0.2,0.3 -0.4,0.6 -0.5,1 0.9,-0.7 1.8,-1.4 2.7,-2.1 -0.3,0.1 -0.7,0.2 -1,0.3 1.2,0.2 2.3,0.3 3.5,0.5 -0.3,-0.2 -0.7,-0.3 -1,-0.5 0.7,1.3 1.5,2.6 2.2,3.9 0.2,-1.7 0.4,-3.4 0.6,-5.1 0.6,-4.4 -5.1,-5.3 -7.7,-3.2 -0.7,0.6 -1.4,1.1 -2.1,1.7 2.4,0.3 4.7,0.6 7.1,0.9 -9.4,-17.4 -7.2,-35.3 -3.3,-54 1.2,-5.6 -7,-8 -8.7,-2.4 -0.2,0.7 -0.4,1.4 -0.6,2.1 -1.2,4.2 4.5,7.7 7.5,4.4 2,-2.2 4,-4.3 6,-6.5 3.2,-3.5 0,-8.3 -4.4,-7.5 -1.3,0.2 -2.7,0.5 -4,0.7 1.7,2.2 3.4,4.4 5.1,6.6 2.1,-3.1 4.1,-6.2 6.2,-9.3 -2.8,-0.8 -5.6,-1.5 -8.4,-2.3 -0.1,1.9 -0.3,3.9 -0.4,5.8 -0.3,4.4 6.4,6.2 8.4,2.3 1.9,-3.7 3.7,-7.3 5.6,-11 2.5,-5.3 -5.2,-9.8 -7.9,-4.7 z"
   id="path330"
   inkscape:connector-curvature="0"
   style="fill:#f15a29" />
			</g>
		</g>
		<g
   id="g340">
			<g
   id="g338">
				<path
   d="m 452.6,315.5 c -9.9,10.3 -14.8,24.8 -14.4,39 0.4,13 5.6,29.9 19.4,34.3 14.1,4.5 24.8,-9.5 28.1,-21.5 4,-14.5 3.5,-34.5 -4.6,-47.6 -3.5,-5.7 -9.2,-10.8 -16.1,-11.2 -6.7,-0.4 -12.6,3.4 -15.6,9.2 -1.5,2.8 2.8,5.4 4.3,2.5 3.5,-6.6 11,-8.7 17.2,-4.4 6.5,4.5 9.3,12.6 10.7,20 2.6,14.2 2.6,35 -9.6,45 -6.6,5.4 -14.7,4.2 -20.4,-1.9 -5.2,-5.7 -7.6,-13.9 -8.3,-21.4 -1.3,-13.8 3,-28.4 12.8,-38.5 2.3,-2.3 -1.3,-5.8 -3.5,-3.5 z"
   id="path336"
   inkscape:connector-curvature="0" />
			</g>
		</g>
		<g
   id="g346">
			<g
   id="g344">
				<path
   d="m 487.6,386 c 8.2,-17.7 12.1,-38.4 8.7,-57.7 -2.9,-16.3 -14.4,-33.5 -33.1,-30.4 -18.1,3.1 -27.8,22.2 -30.7,38.5 -2.9,16.3 -3.4,39 7.5,52.7 5.6,7 14.5,10.6 23.4,9.7 9.8,-0.9 18.1,-6.7 24.9,-13.4 2.3,-2.3 -1.2,-5.8 -3.5,-3.5 -10.4,10.2 -27.7,18.1 -39.7,5.4 -10.4,-10.9 -10,-30.9 -8.4,-44.8 1.6,-14.4 7.7,-31.9 22.1,-38.1 17.6,-7.6 29.6,8.9 32.5,24.3 3.4,18.2 -0.2,38.1 -8,54.8 -1.4,2.9 2.9,5.4 4.3,2.5 z"
   id="path342"
   inkscape:connector-curvature="0" />
			</g>
		</g>
	</g>
	<g
   id="g404">
		<g
   class="st0"
   id="g354"
   style="opacity:0.75">
			<g
   id="g352">
				<path
   class="st7"
   d="m 428.6,393.3 c -0.4,-10.1 -1.8,-20.2 -4.7,-30 -1,-3.4 -1.9,-8 -5.4,-9.6 -3,-1.4 -6,-0.1 -7.7,2.5 2.7,1.2 5.5,2.3 8.2,3.5 0.3,-1.3 0.6,-2.6 0.9,-3.8 0.8,-3.2 -2.2,-6.7 -5.5,-5.5 -1.1,0.4 -2.2,0.7 -3.3,1.1 1.7,2.2 3.4,4.4 5.1,6.6 0.5,-1.1 1,-2.2 1.5,-3.2 1.4,-3.1 -1,-8.3 -5.1,-6.6 -1.5,0.6 -3,1.2 -4.5,1.8 1.8,1 3.7,2.1 5.5,3.1 0,-0.1 0,-0.2 0,-0.3 -0.7,0.9 -1.4,1.8 -2.1,2.7 0.1,0 0.2,-0.1 0.3,-0.1 -0.4,-2.9 -0.8,-5.9 -1.2,-8.8 -2,0.4 -3.9,0.8 -5.9,1.2 1.5,2.5 2.9,5 4.4,7.5 0.9,-0.9 1.8,-1.9 2.7,-2.8 2.7,-2.8 0.7,-7.6 -3.2,-7.7 -8.7,-0.2 -16.7,4.4 -24.4,7.8 2.2,1.7 4.4,3.4 6.6,5.1 3.2,-7.9 -2.9,-15.8 -11.2,-15.3 -3.3,0.2 -5.7,3.7 -3.9,6.8 1.7,2.9 2.6,5.6 2.7,8.9 2.9,-0.4 5.9,-0.8 8.8,-1.2 -0.4,-1.6 -0.8,-3.2 -1.3,-4.7 -1.5,-5.7 -9.5,-3.2 -8.7,2.4 0.6,3.6 1.7,6.8 3.5,10 1.7,3.1 6,2.7 7.8,0 0.2,-0.4 0.5,-0.7 0.7,-1.1 1.9,-2.9 -0.6,-6.7 -3.9,-6.8 -2.6,0 -5.1,1.1 -6.3,3.5 -1.6,3.3 -0.2,5.8 0.9,8.8 1.6,4.2 1.3,9.2 1.6,13.7 0.3,4.5 0.6,9 1,13.6 0.4,5.7 9.4,5.8 9,0 -0.4,-6.1 -0.9,-12.3 -1.3,-18.4 -0.2,-2.6 -0.2,-5.2 -0.6,-7.7 -0.2,-1.1 -0.4,-2.2 -0.8,-3.2 -0.2,-0.6 -0.5,-1.2 -0.8,-1.7 -0.4,-1.4 -1.3,-1.2 -2.8,0.5 -1.3,-2.3 -2.6,-4.5 -3.9,-6.8 -0.2,0.4 -0.5,0.7 -0.7,1.1 2.6,0 5.2,0 7.8,0 -1.4,-2.5 -2.1,-5 -2.6,-7.9 -2.9,0.8 -5.8,1.6 -8.7,2.4 0.4,1.6 0.8,3.2 1.3,4.7 1.3,4.8 9.1,4 8.8,-1.2 -0.2,-4.9 -1.5,-9.3 -4,-13.5 -1.3,2.3 -2.6,4.5 -3.9,6.8 2.4,-0.1 3.4,1.8 2.6,3.9 -1.7,4.1 3.5,6.4 6.6,5.1 6.2,-2.7 12.9,-6.7 19.9,-6.5 -1.1,-2.6 -2.1,-5.1 -3.2,-7.7 -0.9,0.9 -1.8,1.9 -2.7,2.8 -3.2,3.4 0.1,8.4 4.4,7.5 2,-0.4 3.9,-0.8 5.9,-1.2 5.1,-1 3.7,-8.7 -1.2,-8.8 -5.2,-0.2 -8.5,4.1 -6.8,9.1 0.7,2.1 3.2,4.1 5.5,3.1 1.5,-0.6 3,-1.2 4.5,-1.8 -1.7,-2.2 -3.4,-4.4 -5.1,-6.6 -0.5,1.1 -1,2.2 -1.5,3.2 -1.5,3.3 1,8 5.1,6.6 1.1,-0.4 2.2,-0.7 3.3,-1.1 -1.8,-1.8 -3.7,-3.7 -5.5,-5.5 -0.3,1.3 -0.6,2.6 -0.9,3.8 -1.2,5 5.5,7.8 8.2,3.5 0.1,-0.2 0.3,-0.5 0.4,-0.7 -0.9,0.7 -1.8,1.4 -2.7,2.1 -2.3,0.7 -2.2,-2.6 -1.9,0.8 0.1,1.4 1,3.1 1.3,4.5 0.7,2.7 1.4,5.5 1.9,8.3 1.1,5.8 1.7,11.6 1.9,17.5 0.5,5.7 9.5,5.7 9.3,-0.1 z"
   id="path350"
   inkscape:connector-curvature="0"
   style="fill:#58595b" />
			</g>
		</g>
		<g
   id="g360">
			<g
   id="g358">
				<path
   d="m 373.8,346.5 c 3.1,14.2 5.4,28.6 6.6,43.1 0.3,3.2 -0.8,8.6 1,11.4 1.8,2.9 6.1,1.8 9,1.7 3.2,-0.2 3.2,-5.2 0,-5 -1,0.1 -3.7,0.8 -4.4,0.1 -0.8,-0.8 -0.3,-3.4 -0.3,-4.5 -0.1,-5.4 -0.9,-11 -1.6,-16.3 -1.3,-10.7 -3.2,-21.2 -5.5,-31.7 -0.6,-3.2 -5.5,-1.9 -4.8,1.2 z"
   id="path356"
   inkscape:connector-curvature="0" />
			</g>
		</g>
		<g
   id="g366">
			<g
   id="g364">
				<path
   d="m 374.9,343.5 c -0.2,0.1 -0.5,0.3 -0.1,0.1 -0.2,0.1 -0.5,0.1 -0.7,0.2 -0.2,0 -0.1,0 0.2,0 -0.1,0 -0.2,0 -0.3,0 -0.1,0 -0.2,0 -0.3,0 0.3,0.1 0.3,0.1 0.1,0 -1.3,-0.3 -2.8,0.4 -3.1,1.7 -0.3,1.2 0.4,2.8 1.7,3.1 1.8,0.4 3.5,0.1 5.1,-0.8 1.1,-0.7 1.6,-2.3 0.9,-3.4 -0.8,-1.2 -2.3,-1.7 -3.5,-0.9 z"
   id="path362"
   inkscape:connector-curvature="0" />
			</g>
		</g>
		<g
   id="g372">
			<g
   id="g370">
				<path
   d="m 373,347.1 c 4.4,-0.5 8.9,-1 13.3,-1.5 3.2,-0.3 3.2,-5.4 0,-5 -4.4,0.5 -8.9,1 -13.3,1.5 -3.2,0.4 -3.2,5.4 0,5 z"
   id="path368"
   inkscape:connector-curvature="0" />
			</g>
		</g>
		<g
   id="g378">
			<g
   id="g376">
				<path
   d="m 385.2,344.4 c 0.6,3.3 1.2,6.7 1.8,10 0.6,3.2 5.4,1.8 4.8,-1.3 -0.6,-3.3 -1.2,-6.7 -1.8,-10 -0.5,-3.2 -5.3,-1.8 -4.8,1.3 z"
   id="path374"
   inkscape:connector-curvature="0" />
			</g>
		</g>
		<g
   id="g384">
			<g
   id="g382">
				<path
   d="m 393.7,355.2 c 2.5,-5.4 8.2,-8.2 14.1,-6.8 6.2,1.5 10.6,6.5 12.9,12.3 4.3,10.9 2.9,23.9 3,35.4 0,3.2 5,3.2 5,0 -0.2,-14.8 2.2,-33.8 -8.6,-45.8 -8.5,-9.4 -24.9,-10.2 -30.8,2.4 -1.3,2.9 3,5.5 4.4,2.5 z"
   id="path380"
   inkscape:connector-curvature="0" />
			</g>
		</g>
		<g
   id="g390">
			<g
   id="g388">
				<path
   d="m 394,399.5 c -1.3,-12.6 -2.5,-25.2 -3.8,-37.8 -0.3,-3.2 -5.3,-3.2 -5,0 1.3,12.6 2.5,25.2 3.8,37.8 0.3,3.2 5.3,3.2 5,0 z"
   id="path386"
   inkscape:connector-curvature="0" />
			</g>
		</g>
		<g
   id="g396">
			<g
   id="g394">
				<path
   d="m 391.5,362 c 3,-3.6 7.6,-5.5 12.3,-4.3 4.8,1.3 7.7,5.7 9.9,9.9 4.7,9.2 6.2,19.5 5.1,29.7 -0.3,3.2 4.7,3.2 5,0 1.3,-12.8 -1.2,-27.6 -9.4,-37.9 -6.8,-8.5 -19.2,-9.5 -26.4,-0.9 -2.1,2.4 1.4,6 3.5,3.5 z"
   id="path392"
   inkscape:connector-curvature="0" />
			</g>
		</g>
		<g
   id="g402">
			<g
   id="g400">
				<path
   d="m 420.2,396.5 c -0.1,0.2 -0.1,0.5 -0.2,0.7 -0.5,1.5 0.8,3.2 2.4,3.2 1.1,0 2.2,-0.1 3.4,-0.1 1.3,0 2.6,-1.1 2.5,-2.5 -0.1,-1.3 -1.1,-2.5 -2.5,-2.5 -1.1,0 -2.2,0.1 -3.4,0.1 0.8,1.1 1.6,2.1 2.4,3.2 0.1,-0.2 0.1,-0.5 0.2,-0.7 0.4,-1.3 -0.4,-2.8 -1.7,-3.1 -1.3,-0.4 -2.7,0.3 -3.1,1.7 z"
   id="path398"
   inkscape:connector-curvature="0" />
			</g>
		</g>
	</g>
	<g
   id="g424">
		<g
   id="g410">
			<g
   id="g408">
				<path
   d="m 523,370.8 c -5.5,-3.1 -14.8,-6.3 -18.3,1.3 -1.6,3.5 -0.4,7.2 1,10.5 1.4,3.4 3.2,7.6 -0.7,10.3 -3.9,2.6 -7.7,-1 -8.2,-4.7 -0.5,-3.2 -5.3,-1.8 -4.8,1.3 1.2,8 10.9,12.2 17.2,6.5 2.8,-2.6 4,-6.3 3.2,-10 -0.6,-2.8 -3.4,-6.2 -3.2,-8.9 -0.7,-1.4 -0.1,-2.5 1.8,-3.1 1,-1.8 2.5,-2.3 4.3,-1.5 1.9,0.5 3.7,1.6 5.3,2.6 2.7,1.6 5.2,-2.7 2.4,-4.3 z"
   id="path406"
   inkscape:connector-curvature="0" />
			</g>
		</g>
		<g
   id="g416">
			<g
   id="g414">
				<path
   d="m 525.1,372.5 c 0.5,-8.8 -8.8,-13.9 -16.5,-10.4 -4.1,1.9 -7.1,5.6 -8.5,9.9 -0.7,2.3 -1,4.9 -0.9,7.3 0,1.4 0.2,2.7 0.4,4 0.1,0.8 0.2,1.6 0.3,2.5 -1.5,1.3 -2.4,1.1 -2.8,-0.4 -1,-1.8 -3.3,-1.4 -4.3,0 -0.4,0.5 -0.8,1 -1.2,1.5 -2,2.5 2.4,5 4.3,2.5 0.4,-0.5 0.8,-1 1.2,-1.5 -1.4,0 -2.9,0 -4.3,0 1.3,2.5 3.3,5.3 6.5,5.1 2.9,-0.1 5,-2.7 5.5,-5.3 1,-5.3 -1.7,-10.2 0.7,-15.5 1.3,-2.9 3.8,-5.6 7.1,-6.2 4.1,-0.7 7.7,2.4 7.4,6.6 -0.1,3.1 4.9,3.1 5.1,-0.1 z"
   id="path412"
   inkscape:connector-curvature="0" />
			</g>
		</g>
		<g
   class="st0"
   id="g422"
   style="opacity:0.75">
			<g
   id="g420">
				<path
   d="m 517.5,369.5 c 0,0.1 0,0.2 -0.1,0.4 -0.2,1.1 0.1,2.3 1.1,2.8 0.1,0.1 0.2,0.1 0.4,0.2 1,0.5 2.2,0.4 3,-0.4 3.3,-3.4 -2.1,-6.2 -4.4,-7.8 -0.6,1.5 -1.3,3 -1.9,4.6 0.2,0.1 0.4,0.1 0.7,0.2 -0.6,-0.8 -1.2,-1.6 -1.8,-2.4 0,0.2 0,0.5 0.1,0.7 0.6,-0.8 1.2,-1.6 1.8,-2.4 -0.2,0 -0.4,0.1 -0.7,0.1 0.9,0.4 1.9,0.8 2.8,1.1 -0.1,-0.2 -0.3,-0.4 -0.4,-0.6 -1.1,1.1 -2.3,2.3 -3.4,3.4 0.2,0.1 0.4,0.2 0.6,0.3 0.8,0.4 1.8,0.5 2.5,0 0.2,-0.1 0.4,-0.3 0.6,-0.4 1.9,-1.3 1.4,-4.7 -1.3,-4.7 -0.6,0 -1.2,0 -1.8,0.1 0.4,1.6 0.8,3.1 1.3,4.7 0.2,-0.1 0.3,-0.2 0.5,-0.2 2.9,-1.4 0.4,-5.6 -2.5,-4.3 -0.7,0.3 -1.4,0.6 -2.1,0.9 1,1.3 2,2.6 3,3.9 0.4,-0.5 0.9,-1 1.3,-1.5 1.6,-1.9 0.1,-4.8 -2.4,-4.2 -0.5,0.1 -1.1,0.3 -1.6,0.4 0.6,1.5 1.3,3 1.9,4.6 0.3,-0.2 0.5,-0.4 0.8,-0.6 2.7,-1.8 0.4,-5.6 -2.5,-4.3 -1,0.4 -2,0.8 -3,1.3 1.2,0.9 2.4,1.9 3.7,2.8 0.1,-0.3 0.2,-0.5 0.3,-0.8 0.8,-2.1 -1.9,-3.9 -3.7,-2.8 -0.3,0.2 -0.6,0.4 -0.9,0.6 -2.3,1.4 -0.8,5.7 1.9,4.6 0.2,-0.1 0.4,-0.2 0.6,-0.3 -0.6,-1.5 -1.3,-3 -1.9,-4.6 -0.6,0.4 -1.1,0.7 -1.7,1.1 1.1,1.1 2.3,2.3 3.4,3.4 0.2,-0.3 0.5,-0.6 0.7,-1 0.7,-1 0.3,-2.9 -0.9,-3.4 -1,-0.4 -1.6,-0.6 -2.7,-0.3 -1.4,0.5 -2.2,0.9 -0.4,1.2 0.6,0.8 1.2,1.6 1.8,2.4 0,-0.1 0,-0.3 0,-0.4 -0.6,0.8 -1.2,1.6 -1.8,2.4 0.1,0 0.2,0 0.4,-0.1 -0.9,-1.2 -1.9,-2.4 -2.8,-3.7 -0.9,1.3 -1.7,2.6 -2.6,3.9 -1.6,2.3 2,5.2 3.9,3 0.1,-0.2 0.3,-0.3 0.4,-0.5 1.8,-2.1 -0.5,-5.4 -3,-3.9 -0.4,0.2 -0.8,0.5 -1.2,0.7 -1.3,0.8 -1.8,2.9 -0.5,3.9 0.2,0.2 0.4,0.3 0.6,0.5 -0.2,-0.8 -0.4,-1.6 -0.6,-2.4 -0.5,1.2 -0.9,2.4 -1.4,3.6 -0.9,2.3 1.9,3.6 3.7,2.8 0.3,-0.1 0.5,-0.2 0.8,-0.3 -1.1,-1.1 -2.3,-2.3 -3.4,-3.4 -0.3,0.5 -0.6,1 -0.9,1.5 -1.3,2 0.8,4 2.8,3.7 0.2,0 0.4,-0.1 0.6,-0.1 -1,-1 -2.1,-2.1 -3.1,-3.1 -0.2,1.4 -0.4,2.8 -0.6,4.2 -0.2,1.7 1.1,3.7 3.1,3.1 0.3,-0.1 0.5,-0.2 0.8,-0.3 -0.9,-1.2 -1.9,-2.4 -2.8,-3.7 -0.3,0.5 -0.7,0.9 -1,1.4 -1,1.4 0.3,4 2.2,3.8 0.4,0 0.8,-0.1 1.1,-0.1 -0.6,-1.4 -1.2,-2.8 -1.8,-4.3 -0.4,0.3 -0.7,0.7 -1.1,1 -1.9,1.8 0.1,4.8 2.4,4.2 0.5,-0.1 1,-0.3 1.5,-0.4 -0.8,-1.4 -1.6,-2.8 -2.4,-4.2 -0.4,0.5 -0.8,1.1 -1.3,1.6 -1.6,2 -0.1,4.6 2.4,4.2 0.3,0 0.6,-0.1 0.9,-0.1 -1,-1 -2.1,-2.1 -3.1,-3.1 -0.1,0.5 -0.3,0.9 -0.4,1.4 -0.6,2 1.3,3.4 3.1,3.1 0.8,-0.1 1.7,-0.3 2.5,-0.4 -0.8,-1.4 -1.6,-2.8 -2.4,-4.2 -1.1,1 -1.4,1.7 -1.2,3.2 0.1,1.2 0.7,2 1.8,2.4 1.4,0.5 2.2,0.4 3.4,-0.4 -1.1,-1.1 -2.3,-2.3 -3.4,-3.4 -0.2,0.3 -0.3,0.6 -0.5,0.9 1.5,0.6 3,1.3 4.6,1.9 0.1,-0.3 0.1,-0.5 0.2,-0.8 -1.6,-0.4 -3.2,-0.9 -4.8,-1.3 -0.3,1.6 -0.7,3.3 -1,4.9 1.6,0.2 3.3,0.4 4.9,0.7 0,-0.4 0.1,-0.7 0.1,-1.1 0.3,-2.3 -2.8,-3.1 -4.3,-1.8 -0.6,0.6 -1.3,1.1 -1.9,1.7 1.2,1.2 2.4,2.4 3.5,3.5 0.3,-0.3 0.5,-0.5 0.8,-0.8 1.8,-2 -0.5,-5.5 -3,-3.9 -1.1,0.7 -2.7,2.3 -4.3,1.4 -0.2,1.5 -0.4,3 -0.6,4.6 2.2,-0.9 4.5,-1.8 6.7,-2.7 2,-0.8 2.5,-3.3 0.6,-4.6 -0.2,-0.2 -0.5,-0.3 -0.7,-0.5 0.4,0.7 0.8,1.4 1.2,2.2 0,-0.3 0.1,-0.5 0.1,-0.8 0.2,-1.5 -1.8,-3 -3.2,-2.4 -0.3,0.1 -0.7,0.3 -1,0.4 1.1,0.8 2.1,1.6 3.2,2.4 0,-0.2 0,-0.4 0.1,-0.6 0.2,-2.7 -3.4,-3.1 -4.7,-1.3 -0.2,0.2 -0.3,0.5 -0.5,0.7 -1.9,2.6 2.5,5.1 4.3,2.5 0.2,-0.2 0.3,-0.5 0.5,-0.7 -1.6,-0.4 -3.1,-0.8 -4.7,-1.3 0,0.2 0,0.4 -0.1,0.6 -0.1,1.5 1.7,3 3.2,2.4 0.3,-0.1 0.7,-0.3 1,-0.4 -1.1,-0.8 -2.1,-1.6 -3.2,-2.4 0,0.3 -0.1,0.5 -0.1,0.8 -0.1,0.9 0.6,1.7 1.2,2.2 0.2,0.2 0.5,0.3 0.7,0.5 0.2,-1.5 0.4,-3 0.6,-4.6 -2.2,0.9 -4.5,1.8 -6.7,2.7 -2,0.8 -2.5,3.3 -0.6,4.6 3.6,2.3 6.1,0.7 9.3,-1.4 -1,-1.3 -2,-2.6 -3,-3.9 -0.3,0.3 -0.5,0.5 -0.8,0.8 -2.2,2.4 1.1,5.7 3.5,3.5 0.6,-0.6 1.3,-1.1 1.9,-1.7 -1.4,-0.6 -2.8,-1.2 -4.3,-1.8 0,0.4 -0.1,0.7 -0.1,1.1 -0.3,2.8 4.4,3.4 4.9,0.7 0.3,-1.6 0.7,-3.3 1,-4.9 0.6,-3.1 -4,-4.5 -4.8,-1.3 -0.1,0.3 -0.1,0.5 -0.2,0.8 -0.7,2.7 3.1,4.4 4.6,1.9 0.2,-0.3 0.3,-0.6 0.5,-0.9 1.2,-2.1 -1.3,-4.8 -3.4,-3.4 0.1,0 0.3,-0.1 0.4,-0.1 0.6,0.8 1.2,1.6 1.8,2.4 -0.1,0.1 -0.1,0.2 -0.2,0.3 2,-1.9 -0.1,-4.6 -2.4,-4.2 -0.8,0.1 -1.7,0.3 -2.5,0.4 1,1 2.1,2.1 3.1,3.1 0.1,-0.5 0.3,-0.9 0.4,-1.4 0.6,-2 -1.3,-3.4 -3.1,-3.1 -0.3,0 -0.6,0.1 -0.9,0.1 0.8,1.4 1.6,2.8 2.4,4.2 0.4,-0.5 0.8,-1.1 1.3,-1.6 1.4,-1.9 0.2,-4.9 -2.4,-4.2 -0.5,0.1 -1,0.3 -1.5,0.4 0.8,1.4 1.6,2.8 2.4,4.2 0.4,-0.3 0.7,-0.7 1.1,-1 1.4,-1.4 0.4,-4.6 -1.8,-4.3 -0.4,0 -0.8,0.1 -1.1,0.1 0.7,1.3 1.4,2.5 2.2,3.8 0.3,-0.5 0.7,-0.9 1,-1.4 1.3,-1.8 -0.8,-4.3 -2.8,-3.7 -0.3,0.1 -0.5,0.2 -0.8,0.3 1,1 2.1,2.1 3.1,3.1 0.2,-1.4 0.4,-2.8 0.6,-4.2 0.3,-2 -1.1,-3.4 -3.1,-3.1 -0.2,0 -0.4,0.1 -0.6,0.1 0.9,1.2 1.9,2.4 2.8,3.7 0.3,-0.5 0.6,-1 0.9,-1.5 1.5,-2.3 -1.3,-4.4 -3.4,-3.4 -0.3,0.1 -0.5,0.2 -0.8,0.3 1.2,0.9 2.4,1.9 3.7,2.8 0.5,-1.2 0.9,-2.4 1.4,-3.6 0.3,-0.7 0,-1.9 -0.6,-2.4 -0.2,-0.2 -0.4,-0.3 -0.6,-0.5 -0.2,1.3 -0.3,2.6 -0.5,3.9 0.4,-0.2 0.8,-0.5 1.2,-0.7 -1,-1.3 -2,-2.6 -3,-3.9 -0.1,0.2 -0.3,0.3 -0.4,0.5 1.3,1 2.6,2 3.9,3 0.9,-1.3 1.7,-2.6 2.6,-3.9 1.3,-2 -0.8,-4.1 -2.8,-3.7 -0.1,0 -0.2,0 -0.4,0.1 -1.1,0.2 -1.8,1.4 -1.8,2.4 0,0.1 0,0.3 0,0.4 0,1 0.8,2.2 1.8,2.4 2.3,0.4 2.2,-0.8 3.9,-1.6 -0.8,0 -1.7,0 -2.5,0 0.1,0.1 0.3,0.1 0.4,0.2 -0.3,-1.1 -0.6,-2.3 -0.9,-3.4 -0.2,0.3 -0.5,0.6 -0.7,1 -1.5,2.1 1.4,4.7 3.4,3.4 0.6,-0.4 1.1,-0.7 1.7,-1.1 2.2,-1.4 0.8,-5.7 -1.9,-4.6 -0.2,0.1 -0.4,0.2 -0.6,0.3 0.6,1.5 1.3,3 1.9,4.6 0.3,-0.2 0.6,-0.4 0.9,-0.6 -1.2,-0.9 -2.4,-1.9 -3.7,-2.8 -0.1,0.3 -0.2,0.5 -0.3,0.8 -0.9,2.3 2,3.6 3.7,2.8 1,-0.4 2,-0.8 3,-1.3 -0.8,-1.4 -1.7,-2.9 -2.5,-4.3 -0.3,0.2 -0.5,0.4 -0.8,0.6 -2.3,1.6 -0.9,5.3 1.9,4.6 0.5,-0.1 1.1,-0.3 1.6,-0.4 -0.8,-1.4 -1.6,-2.8 -2.4,-4.2 -0.4,0.5 -0.9,1 -1.3,1.5 -1.9,2.2 0.4,5.1 3,3.9 0.7,-0.3 1.4,-0.6 2.1,-0.9 -0.8,-1.4 -1.7,-2.9 -2.5,-4.3 -0.2,0.1 -0.3,0.2 -0.5,0.2 -2.3,1.1 -1.1,4.7 1.3,4.7 0.6,0 1.2,0 1.8,-0.1 -0.4,-1.6 -0.8,-3.1 -1.3,-4.7 -0.2,0.1 -0.4,0.3 -0.6,0.4 0.8,0 1.7,0 2.5,0 -0.2,-0.1 -0.4,-0.2 -0.6,-0.3 -2.1,-1 -5,1.2 -3.4,3.4 0.1,0.2 0.3,0.4 0.4,0.6 0.7,1 1.7,1.4 2.8,1.1 0.2,0 0.4,-0.1 0.7,-0.1 1,-0.2 1.9,-1.4 1.8,-2.4 0,-0.2 -0.1,-0.5 -0.1,-0.7 -0.1,-1.1 -0.7,-2.1 -1.8,-2.4 -0.2,-0.1 -0.4,-0.1 -0.7,-0.2 -2.8,-0.8 -4.2,3 -1.9,4.6 2.4,1.6 1.5,1.9 3.4,-0.1 1,-0.1 2,-0.3 3,-0.4 -0.1,-0.1 -0.2,-0.1 -0.4,-0.2 0.4,0.9 0.8,1.9 1.1,2.8 0,-0.1 0,-0.2 0.1,-0.4 0.7,-2.9 -4.1,-4.3 -4.6,-1.1 z"
   id="path418"
   inkscape:connector-curvature="0" />
			</g>
		</g>
	</g>
	<g
   id="g444">
		<g
   class="st0"
   id="g430"
   style="opacity:0.75">
			<g
   id="g428">
				<path
   class="st8"
   d="m 538.2,348.4 c 1.2,3.2 2.3,6.3 3.5,9.5 2.1,-2.7 4.2,-5.5 6.3,-8.2 3.2,0.3 2.1,-0.4 1.4,-2.9 -1.1,-4.3 -5.9,-5.7 -9.5,-3.9 -7.3,3.7 -11,11.2 -11.8,19.1 -0.9,8.2 -0.3,18.3 2.7,26 5.8,14.9 22.7,23.4 37.9,17.5 15.6,-6 21.7,-24.1 20.5,-39.7 -1.2,-16.9 -12,-30.1 -29.3,-31.8 0.6,4.3 1.2,8.5 1.7,12.8 0.7,-0.1 1.4,-0.1 2,0.2 1.7,-4 3.3,-7.9 5,-11.9 -8,-1.1 -25.4,-5.9 -25.5,7.7 0,4.2 2.3,9.4 5.7,11.8 2,1.3 4.6,1.8 6.9,1.3 2,-0.4 3.1,-2 4.5,-2.9 -1.7,0.2 -3.3,0.4 -5,0.7 0.3,0.1 0.7,0.1 1,0.2 -1.3,-1 -2.6,-2 -3.9,-3 0.2,0.3 0.4,0.6 0.6,0.8 -0.2,-1.7 -0.4,-3.3 -0.7,-5 -0.1,0.3 -0.2,0.6 -0.3,1 1,-1.3 2,-2.6 3,-3.9 -0.3,0.2 -0.6,0.3 -0.9,0.5 -6.8,3.5 -1.9,13.5 5,11.9 2.8,-0.6 5.4,1.1 7.4,3.1 1.8,1.9 2,4.7 2.2,7.2 0.4,6 -0.2,13 -5,17.3 -4.6,4.2 -10.7,2.6 -13.8,-2.4 -3.7,-6 -2.3,-13.5 -0.7,-19.9 2.1,-8.1 -10.5,-11.6 -12.5,-3.5 -3,11.8 -3.4,25.3 5.6,34.6 8.4,8.7 22,8.5 30.6,0.3 8.6,-8.1 10.3,-21.7 8,-32.8 -1.1,-5.4 -3.9,-9.3 -8.4,-12.4 -5.6,-4 -10,-5.7 -16.9,-4.1 1.7,4 3.3,7.9 5,11.9 6.8,-3.5 5,-13.7 -2.8,-14.4 -1.9,-0.2 -3.4,0.2 -4.9,1.3 -0.4,0.3 -0.9,0.7 -1.3,1 -1.8,2 -0.2,2 4.7,0.2 -3.1,2 -3.4,2.9 -0.8,2.8 0.6,0.1 1.3,0.2 1.9,0.3 2.6,0.3 5.1,0.7 7.7,1.1 3.3,0.5 6.3,-0.5 7.7,-3.8 1.1,-2.7 0.3,-6.8 -2.7,-8.1 -4.1,-1.8 -7.6,-2.2 -12,-1.5 -7.8,1.3 -5,12.1 1.7,12.8 10.2,1 15.8,10.1 16.3,19.6 0.5,9.3 -1.7,21.9 -11.1,26.3 -8.8,4.2 -19.1,-1 -22.4,-9.8 -1.9,-5 -1.9,-10.9 -1.9,-16.1 0,-5.1 0.7,-10.4 5.6,-12.9 -3.2,-1.3 -6.4,-2.6 -9.5,-3.9 1.6,6.5 3.7,11.7 11.1,12.4 4,0.4 7.7,-4.5 6.3,-8.2 -1.2,-3.2 -2.3,-6.3 -3.5,-9.5 -2.8,-7.9 -15.4,-4.6 -12.4,3.3 z"
   id="path426"
   inkscape:connector-curvature="0"
   style="fill:#c49a6c" />
			</g>
		</g>
		<g
   id="g436">
			<g
   id="g434">
				<path
   d="m 549.9,357.5 c -9.8,1.6 -7.7,17.6 -4.6,23.8 5,9.7 17.2,10.8 23.9,2.3 5.3,-6.8 6.1,-17.7 0.9,-24.8 -5.7,-7.8 -18.5,-8.7 -22.4,1.1 -1.2,3 3.6,4.3 4.8,1.3 3.2,-7.9 13.2,-1.8 15.2,3.7 1.7,4.7 1,10.8 -1.9,14.9 -4.3,6.3 -12.6,6.1 -16.2,-1 -1.7,-3.5 -4.1,-15.5 1.6,-16.4 3.2,-0.6 1.9,-5.5 -1.3,-4.9 z"
   id="path432"
   inkscape:connector-curvature="0" />
			</g>
		</g>
		<g
   id="g442">
			<g
   id="g440">
				<path
   d="m 541.1,340.4 c -13.5,7.8 -16.7,23.8 -14.6,38.3 2.3,15.4 12.5,26.4 28.1,28.9 34.7,5.5 44.8,-43.9 26.3,-65.5 -10.8,-12.6 -31.2,-14.5 -41.2,0 -1.8,2.7 2.5,5.2 4.3,2.5 4.9,-7.1 13.7,-9.3 21.8,-6.9 7.6,2.2 13.9,9.2 16.5,16.5 5,13.8 3.9,32.1 -7.3,42.6 -13.1,12.3 -35.8,4.9 -41.7,-11.2 -5,-13.7 -3.4,-33 10.3,-40.9 2.8,-1.6 0.3,-5.9 -2.5,-4.3 z"
   id="path438"
   inkscape:connector-curvature="0" />
			</g>
		</g>
	</g>
	<g
   id="g506">
		<g
   class="st0"
   id="g450"
   style="opacity:0.75">
			<g
   id="g448">
				<path
   class="st9"
   d="m 617.6,350.4 c -1,1.7 -1.7,3.7 -0.4,5.5 1.1,1.5 3,1.9 4.7,1 3.3,-1.9 2.1,-7.6 -1.5,-8.2 -3.9,-0.7 -6.3,4.8 -2.5,6.7 1.6,0.8 3.6,0.2 4.6,-1.3 1.2,-1.7 0.4,-3.5 -0.8,-5 -1.8,-2.3 -5.3,0.6 -3.9,3 0.6,1 1.1,2 1.7,2.9 0,-0.8 0,-1.7 0,-2.5 -1.6,2.6 0.4,6.1 3.6,5.5 3.6,-0.6 3.9,-4.8 1.7,-7.1 -1,-1 -3.3,-1 -3.9,0.5 -0.7,1.7 -0.7,3.1 0.6,4.5 1.1,1.2 3.2,0.9 3.9,-0.5 1.1,-2 1.1,-4.2 -0.3,-6.1 -1.2,-1.6 -4,-1.7 -4.6,0.6 -0.1,0.5 -0.3,1 -0.4,1.5 -0.5,2.1 1.8,4 3.7,2.8 2.1,-1.3 2.3,-3.6 0.8,-5.4 -1.6,-1.9 -5,0.1 -4.2,2.4 0.4,1 0.7,2 1.1,2.9 0.7,2.1 3.3,2.4 4.6,0.6 0.2,-0.4 0.5,-0.7 0.7,-1 1.4,-2 -1.4,-4.9 -3.4,-3.4 -2.4,1.8 -2.7,5.7 0.8,6.5 3.4,0.8 5.3,-2.9 3.7,-5.5 -1.2,-2.1 -4.7,-1.2 -4.7,1.3 0,0.7 0,1.4 0,2.1 0,2.6 3.3,3.3 4.7,1.3 1.6,-2.3 1.8,-6.1 -0.9,-7.7 -2.2,-1.3 -5.1,0.3 -4.9,2.9 0.2,2 2.7,3.5 4.3,1.8 0.9,-1.1 1.3,-1.9 0.8,-3.3 -1.5,0.6 -3,1.3 -4.6,1.9 1.2,2 2.4,5.2 5.2,5 2.3,-0.1 3.2,-2.1 2.9,-4.1 -0.3,-2 -3,-2.2 -4.2,-1.1 -1.8,1.6 -2.3,5.2 0.6,6.1 3.4,1 4.7,-2.5 4.1,-5.1 -0.5,-2.2 -3.5,-2.3 -4.6,-0.6 -2,3.2 2.2,6.5 4.9,3.8 2.8,-2.8 0,-7.1 -3.2,-7.8 0,1.6 0,3.2 0,4.8 0.2,-0.1 0.3,-0.1 0.5,-0.2 1.3,-0.5 2.5,-2.3 1.5,-3.7 -0.7,-0.9 -1.4,-1.5 -2.6,-1.4 -2.7,0 -3.2,3.2 -1.3,4.7 2.6,1.9 6.1,1 7.4,-1.9 1.1,-2.4 -1.8,-5.2 -3.9,-3 -4.2,4.4 4.3,8.9 5.5,3.1 -1.6,-0.2 -3.3,-0.4 -4.9,-0.7 0,0.2 0.1,0.4 0.1,0.6 0.3,2.5 4.3,3.7 4.9,0.7 0.1,-0.5 0.2,-1 0.3,-1.5 -1.6,-0.2 -3.3,-0.4 -4.9,-0.7 0,2 -0.2,3.8 -0.7,5.7 1.6,0.2 3.3,0.4 4.9,0.7 0,-0.3 0,-0.5 0,-0.8 -0.1,-2.1 -2.7,-3.4 -4.3,-1.8 -0.1,0.1 -0.2,0.3 -0.4,0.4 -1.4,1.5 -0.5,4.4 1.8,4.3 0.5,0 0.9,-0.1 1.4,-0.1 3.2,-0.2 3.2,-5.2 0,-5 -0.5,0 -0.9,0.1 -1.4,0.1 0.6,1.4 1.2,2.8 1.8,4.3 0.1,-0.1 0.2,-0.3 0.4,-0.4 -1.4,-0.6 -2.8,-1.2 -4.3,-1.8 0,0.3 0,0.5 0,0.8 0.1,2.8 4.1,3.5 4.9,0.7 0.7,-2.3 1,-4.6 0.9,-7 0,-2.7 -4.3,-3.5 -4.9,-0.7 -0.1,0.5 -0.2,1 -0.3,1.5 1.6,0.2 3.3,0.4 4.9,0.7 0,-0.2 -0.1,-0.4 -0.1,-0.6 -0.3,-2.5 -4.3,-3.7 -4.9,-0.7 0,0 0,0 0,-0.1 0.6,-0.2 1.2,-0.5 1.8,-0.7 -0.2,0 -0.4,0 -0.6,0 0.6,0.2 1.2,0.5 1.8,0.7 0,0.6 0,1.3 0,1.9 -1.3,-1 -2.6,-2 -3.9,-3 -0.2,0.1 -0.4,0.1 -0.6,0.2 -0.4,1.6 -0.8,3.1 -1.3,4.7 0.1,0 0.2,0 0.2,0 -0.7,-0.4 -1.4,-0.8 -2.2,-1.2 0,0.1 0.1,0.1 0.1,0.2 0.5,-1.2 1,-2.4 1.5,-3.7 -0.2,0.1 -0.3,0.1 -0.5,0.2 -2.1,0.8 -2.6,4.2 0,4.8 0.3,-0.2 0.6,-0.5 1,-0.7 0.6,-0.1 1.3,-0.2 1.9,-0.3 -0.2,0 -0.4,-0.1 -0.5,-0.1 0.5,0.4 1,0.8 1.5,1.1 -0.1,-0.2 -0.1,-0.3 -0.2,-0.5 0,0.8 0,1.7 0,2.5 0.1,-0.1 0.2,-0.3 0.3,-0.4 -1.5,-0.2 -3,-0.4 -4.6,-0.6 0,0.3 0,0.5 0,0.8 0.2,-0.6 0.5,-1.2 0.7,-1.8 -0.2,0.2 -0.3,0.4 -0.5,0.5 0.6,-0.2 1.2,-0.5 1.8,-0.7 -0.2,0 -0.5,0 -0.7,0 0.7,0.4 1.4,0.8 2.2,1.2 0,0.4 0.1,0.8 0.1,1.1 -1.4,-0.4 -2.8,-0.7 -4.2,-1.1 0,0.2 0,0.3 0.1,0.5 0.2,-0.8 0.4,-1.6 0.6,-2.4 0.1,0 0.1,-0.1 0.2,-0.1 0.6,0.1 1.3,0.2 1.9,0.3 -0.8,-0.5 -1.4,-2.1 -1.8,-2.9 -1.4,-2.4 -5.4,-0.8 -4.6,1.9 0.1,0.2 0.1,0.3 0.2,0.5 0.2,-0.8 0.4,-1.6 0.6,-2.4 -0.1,0.1 -0.2,0.3 -0.4,0.4 1.4,0.6 2.8,1.2 4.3,1.8 0,-0.2 0,-0.3 0,-0.5 -0.2,0.6 -0.5,1.2 -0.7,1.8 -0.1,0 -0.2,0.1 -0.3,0.1 -0.6,-0.1 -1.3,-0.2 -1.9,-0.3 -0.2,0.4 -0.4,0.7 -0.5,1.1 1.6,0.4 3.1,0.8 4.7,1.3 0,-0.7 0,-1.4 0,-2.1 -1.6,0.4 -3.1,0.8 -4.7,1.3 0.1,-0.5 0.2,-1 0.3,-1.5 0.6,-0.1 1.3,-0.2 1.9,-0.3 0.2,0.5 0.5,0.9 0.7,1.4 -0.4,0.5 -0.8,1 -1.1,1.5 0.2,-0.1 0.3,-0.2 0.5,-0.4 -1.1,-1.1 -2.3,-2.3 -3.4,-3.4 -0.2,0.3 -0.5,0.7 -0.7,1 1.5,0.2 3,0.4 4.6,0.6 -0.4,-1 -0.7,-2 -1.1,-2.9 -1.4,0.8 -2.8,1.6 -4.2,2.4 0.1,0.1 0.2,0.2 0.3,0.4 -0.2,-0.6 -0.5,-1.2 -0.7,-1.8 0.2,-0.3 0.5,-0.7 0.7,-1 1.2,0.9 2.4,1.9 3.7,2.8 0.1,-0.5 0.3,-1 0.4,-1.5 -1.5,0.2 -3,0.4 -4.6,0.6 0.1,0.3 0.2,0.7 0.3,1 1.3,-0.2 2.6,-0.3 3.9,-0.5 0.1,0.1 0.1,0.1 0.2,0.2 -0.1,0.6 -0.2,1.3 -0.3,1.9 0.1,-0.2 0.1,-0.3 0.2,-0.5 -1.3,0.2 -2.6,0.3 -3.9,0.5 0.9,0.2 1.7,0.4 2.6,0.6 0.5,-0.8 0.4,-1.8 0,-2.5 -0.6,-1 -1.1,-2 -1.7,-2.9 -1.3,1 -2.6,2 -3.9,3 0,0.1 0,0.1 0,0.2 0.1,-0.6 0.2,-1.3 0.3,-1.9 0.2,-0.1 0.5,-0.2 0.7,-0.3 0.6,0.2 1.2,0.5 1.8,0.7 -0.5,0.3 -1.1,0.6 -1.6,1 0.6,0.1 1.3,0.2 1.9,0.3 0.2,0 0.5,0.1 0.7,0.1 1.7,-2.9 -2.6,-5.4 -4.3,-2.6 z"
   id="path446"
   inkscape:connector-curvature="0"
   style="fill:#fff200" />
			</g>
		</g>
		<g
   class="st0"
   id="g456"
   style="opacity:0.75">
			<g
   id="g454">
				<path
   class="st9"
   d="m 618.7,369.2 c 0.6,8.9 1.3,17.7 1.9,26.6 0.3,4.4 -0.5,9.7 5,10 3,0.1 8.2,-0.1 10.9,-1.2 1.4,-0.6 2.8,-1.5 2.8,-3.1 0.3,-6 -11.3,-3.3 -14.2,-3.1 0.8,0.6 1.6,1.2 2.4,1.8 0.2,0.7 9.6,-1 10.4,-1.2 1.4,-0.2 1.9,-1.9 1.7,-3.1 -0.8,-5.3 -1.5,-10.7 -1.9,-16.1 -0.3,-3.6 0.3,-7.9 -0.6,-11.3 -1.8,-6.4 -10,-3.1 -14.6,-2.3 -2.7,0.4 -2.1,4.1 0,4.8 0.3,0.3 0.6,0.6 0.9,0.9 0.7,-1.3 1.4,-2.5 2.2,-3.8 0.1,0.1 0.2,0.2 0.3,0.2 -1.6,-1.6 -4.1,-0.4 -4.3,1.8 -0.3,4.6 -0.5,9.2 -0.3,13.9 0.1,3.5 -0.4,8.8 1.1,12 0.9,1.9 2.3,2.4 4.3,2.4 2.7,-0.1 7.5,-0.4 9.6,-2.2 2.1,-1.8 1.5,-4.4 1.1,-6.8 -0.7,-5.2 -1.4,-10.4 -2.2,-15.6 -0.4,-2.7 -0.7,-5.6 -3.6,-6.7 -2.4,-1 -5.1,0.1 -6.7,2 -4.3,5.2 -2.3,15.6 -1.1,21.7 0.5,2.5 0.9,4.8 3.7,5.4 2.3,0.5 5.4,-0.7 6.9,-2.4 2,-2.4 1.1,-5.4 0.8,-8.3 -0.5,-4.1 -0.5,-9 -1.8,-13 -1.6,-4.9 -7.6,-4.7 -8.3,0.5 -0.7,4.9 -0.1,10.9 0.2,15.9 0.1,2.4 0.5,5.2 3.3,5.6 7.6,1 4,-15.6 3,-19.2 -0.9,-3.1 -5.7,-1.8 -4.8,1.3 0.7,2.3 3.2,11.6 0.7,13.7 0.8,-0.2 1.6,-0.4 2.4,-0.6 0.2,0 0.2,-11 0.2,-12.5 0,-1.2 0,-2.4 -0.1,-3.6 -1,1.1 -1.3,2.3 -1,3.6 -0.1,2.1 0.6,4.4 0.8,6.4 0.2,1.3 1.1,4.2 0.7,5.5 -1.8,5.9 -2.4,-1.8 -2.4,-2.5 -0.4,-3.2 -1.6,-8.5 -0.4,-11.5 -0.2,-1.4 0.6,-2 2.2,-1.9 0.2,1.3 0.4,2.6 0.6,3.9 0.3,2 0.6,3.9 0.8,5.9 0.3,2 1.6,5.9 1.1,7.8 0,0.6 0,1.1 0.1,1.7 -1.1,0.2 -2.2,0.4 -3.3,0.6 -2.7,-0.1 -2.2,0 -2.8,-2.5 -0.5,-2.3 -0.3,-5.1 -0.4,-7.4 -0.1,-4.3 0,-8.6 0.3,-12.9 -1.4,0.6 -2.8,1.2 -4.3,1.8 1.1,1 1.8,1.4 3.3,1.2 1.9,-0.2 3.1,-1.9 2.2,-3.8 -0.9,-1.8 -2,-2.6 -3.9,-3.2 0,1.6 0,3.2 0,4.8 1.8,-0.3 7.1,-2 8.5,-0.6 0.9,0.9 0.3,7.8 0.4,9.4 0.4,5.8 1.1,11.7 2.1,17.4 0.6,-1 1.2,-2.1 1.7,-3.1 -4.5,0.6 -15.6,0 -13.8,7.3 0.2,1 1.3,1.9 2.4,1.8 2,-0.1 3.9,-0.2 5.9,-0.3 0.7,0 1.3,-0.1 2,-0.1 2,0.5 2.4,0.2 1.5,-0.8 0.2,-0.8 0.4,-1.6 0.6,-2.4 -0.6,0.6 -4.9,0.6 -5.6,0.7 -0.7,0.1 -1.3,0.1 -2,0.2 -1.6,0.8 -2.2,0.7 -1.9,-0.4 -0.4,-0.6 -0.1,-3.4 -0.2,-4.4 -0.1,-1.9 -0.3,-3.8 -0.4,-5.7 -0.5,-7 -1,-13.9 -1.5,-20.9 0.2,-3.2 -4.8,-3.2 -4.6,0 z"
   id="path452"
   inkscape:connector-curvature="0"
   style="fill:#fff200" />
			</g>
		</g>
		<g
   id="g462">
			<g
   id="g460">
				<path
   d="m 621.2,408.2 c 5.5,0.3 10.8,-0.1 16.2,-1.1 3.2,-0.6 1.8,-5.4 -1.3,-4.8 -4.9,0.9 -9.9,1.2 -14.9,0.9 -3.2,-0.1 -3.2,4.9 0,5 z"
   id="path458"
   inkscape:connector-curvature="0" />
			</g>
		</g>
		<g
   id="g468">
			<g
   id="g466">
				<path
   d="m 616,368.2 c 0.7,12.6 1.4,25.2 2.1,37.8 0.2,3.2 5.2,3.2 5,0 -0.7,-12.6 -1.4,-25.2 -2.1,-37.8 -0.1,-3.2 -5.1,-3.2 -5,0 z"
   id="path464"
   inkscape:connector-curvature="0" />
			</g>
		</g>
		<g
   id="g474">
			<g
   id="g472">
				<path
   d="m 619.7,369.2 c 5,-1.2 10,-1.8 15.1,-1.7 3.2,0.1 3.2,-4.9 0,-5 -5.6,-0.1 -11,0.5 -16.4,1.8 -3.1,0.8 -1.8,5.6 1.3,4.9 z"
   id="path470"
   inkscape:connector-curvature="0" />
			</g>
		</g>
		<g
   id="g480">
			<g
   id="g478">
				<path
   d="m 633.8,365.4 c 1.5,13.4 2.2,26.7 2.1,40.2 0,3.2 5,3.2 5,0 0.1,-13.4 -0.6,-26.8 -2.1,-40.2 -0.4,-3.1 -5.4,-3.2 -5,0 z"
   id="path476"
   inkscape:connector-curvature="0" />
			</g>
		</g>
		<g
   id="g486">
			<g
   id="g484">
				<path
   d="m 617.5,360.6 c 6.3,-0.4 12.5,-0.9 18.8,-1.3 2.6,-0.2 3.6,-4.3 0.7,-4.9 -0.4,-0.1 -0.7,-0.1 -1.1,-0.2 -3.1,-0.6 -4.5,4.2 -1.3,4.8 0.4,0.1 0.7,0.1 1.1,0.2 0.2,-1.6 0.4,-3.3 0.7,-4.9 -6.3,0.4 -12.5,0.9 -18.8,1.3 -3.3,0.2 -3.3,5.2 -0.1,5 z"
   id="path482"
   inkscape:connector-curvature="0" />
			</g>
		</g>
		<g
   id="g492">
			<g
   id="g490">
				<path
   d="m 619.9,356.1 c -0.3,-2.2 -0.5,-4.3 -0.8,-6.5 -0.2,-1.3 -1,-2.5 -2.5,-2.5 -1.2,0 -2.7,1.2 -2.5,2.5 0.3,2.2 0.5,4.3 0.8,6.5 0.2,1.3 1,2.5 2.5,2.5 1.2,0 2.6,-1.1 2.5,-2.5 z"
   id="path488"
   inkscape:connector-curvature="0" />
			</g>
		</g>
		<g
   id="g498">
			<g
   id="g496">
				<path
   d="m 617,350 c 6,-0.1 11.9,-0.4 17.8,-1.1 3.2,-0.4 3.2,-5.4 0,-5 -5.9,0.7 -11.8,1 -17.8,1.1 -3.2,0 -3.2,5 0,5 z"
   id="path494"
   inkscape:connector-curvature="0" />
			</g>
		</g>
		<g
   id="g504">
			<g
   id="g502">
				<path
   d="m 633.5,347 c 0.3,3.3 0.5,6.6 0.8,9.9 0.2,3.2 5.2,3.2 5,0 -0.3,-3.3 -0.5,-6.6 -0.8,-9.9 -0.2,-3.2 -5.2,-3.2 -5,0 z"
   id="path500"
   inkscape:connector-curvature="0" />
			</g>
		</g>
	</g>
	<g
   id="g512">
		<g
   id="g510">
			<path
   d="m 644,406.6 c 5.7,0.2 11.3,0.4 17,0.6 3.2,0.1 3.2,-4.9 0,-5 -5.7,-0.2 -11.3,-0.4 -17,-0.6 -3.2,-0.1 -3.2,4.9 0,5 z"
   id="path508"
   inkscape:connector-curvature="0" />
		</g>
	</g>
	<g
   id="g518">
		<g
   id="g516">
			<path
   d="m 664.2,405.2 c 0.7,-5 2.1,-9.9 4.3,-14.5 1.4,-2.9 -2.9,-5.4 -4.3,-2.5 -2.4,5 -4,10.2 -4.8,15.7 -0.4,3.1 4.4,4.5 4.8,1.3 z"
   id="path514"
   inkscape:connector-curvature="0" />
		</g>
	</g>
	<g
   id="g524">
		<g
   id="g522">
			<path
   d="m 667.1,391.1 c 7.4,0.2 14.9,0.4 22.3,0.6 3.2,0.1 3.2,-4.9 0,-5 -7.4,-0.2 -14.9,-0.4 -22.3,-0.6 -3.2,-0.1 -3.2,4.9 0,5 z"
   id="path520"
   inkscape:connector-curvature="0" />
		</g>
	</g>
	<g
   id="g530">
		<g
   id="g528">
			<path
   d="m 687.9,389.6 c 1.6,4.7 3.1,9.4 4.7,14.1 1,3 5.8,1.7 4.8,-1.3 -1.6,-4.7 -3.1,-9.4 -4.7,-14.1 -1,-3.1 -5.8,-1.8 -4.8,1.3 z"
   id="path526"
   inkscape:connector-curvature="0" />
		</g>
	</g>
	<g
   id="g536">
		<g
   id="g534">
			<path
   d="m 696.1,406.3 c 5.6,0.4 11.3,0.8 16.9,1.2 3.2,0.2 3.2,-4.8 0,-5 -5.6,-0.4 -11.3,-0.8 -16.9,-1.2 -3.2,-0.3 -3.2,4.7 0,5 z"
   id="path532"
   inkscape:connector-curvature="0" />
		</g>
	</g>
	<g
   id="g542">
		<g
   id="g540">
			<path
   d="m 646.5,403.6 c 9.4,-25.6 20.3,-50.5 32.6,-74.8 1.4,-2.9 -2.9,-5.4 -4.3,-2.5 -12.5,24.7 -23.5,50.1 -33.1,76 -1.2,3 3.7,4.3 4.8,1.3 z"
   id="path538"
   inkscape:connector-curvature="0" />
		</g>
	</g>
	<g
   id="g548">
		<g
   id="g546">
			<path
   d="m 676.8,329.2 c 5.7,1.1 11.5,1.4 17.3,0.8 3.2,-0.3 3.2,-5.3 0,-5 -5.4,0.6 -10.7,0.4 -15.9,-0.6 -3.2,-0.6 -4.6,4.2 -1.4,4.8 z"
   id="path544"
   inkscape:connector-curvature="0" />
		</g>
	</g>
	<g
   id="g554">
		<g
   id="g552">
			<path
   d="m 692.2,328.5 c 6.6,25.6 13.2,51.3 19.9,76.9 0.8,3.1 5.6,1.8 4.8,-1.3 -6.6,-25.6 -13.2,-51.3 -19.9,-76.9 -0.8,-3.1 -5.6,-1.8 -4.8,1.3 z"
   id="path550"
   inkscape:connector-curvature="0" />
		</g>
	</g>
	<g
   id="g560">
		<g
   id="g558">
			<path
   d="m 674.5,370 c 4.9,-0.4 9.9,-0.4 14.8,0 3.2,0.3 3.2,-4.7 0,-5 -4.9,-0.4 -9.9,-0.4 -14.8,0 -3.2,0.3 -3.2,5.3 0,5 z"
   id="path556"
   inkscape:connector-curvature="0" />
		</g>
	</g>
	<g
   id="g566">
		<g
   id="g564">
			<path
   d="m 676.5,367.4 c 4.3,-7 7.6,-14.4 9.9,-22.3 0.9,-3.1 -3.9,-4.4 -4.8,-1.3 -2.2,7.5 -5.3,14.4 -9.4,21.1 -1.7,2.7 2.6,5.2 4.3,2.5 z"
   id="path562"
   inkscape:connector-curvature="0" />
		</g>
	</g>
	<g
   id="g572">
		<g
   id="g570">
			<path
   d="m 682.8,345.4 c 2.3,7.6 4,15.3 5.1,23.2 0.4,3.2 5.3,1.8 4.8,-1.3 -1.1,-7.9 -2.8,-15.6 -5.1,-23.2 -0.9,-3.1 -5.7,-1.8 -4.8,1.3 z"
   id="path568"
   inkscape:connector-curvature="0" />
		</g>
	</g>
</g>


</svg>